<?xml version="1.0" encoding="utf-8"?>
<!-- Generator: Adobe Illustrator 18.1.1, SVG Export Plug-In . SVG Version: 6.00 Build 0)  -->
<svg version="1.1" id="Layer_1" xmlns="http://www.w3.org/2000/svg" xmlns:xlink="http://www.w3.org/1999/xlink" x="0px" y="0px"
	 viewBox="0 0 18 18" enable-background="new 0 0 18 18" xml:space="preserve">
<rect x="0" y="0" opacity="0.96" fill="#5091CD" width="18" height="18"/>
<g id="_x38_88-checkmark_x40_2x.png_1_">
	<g>
		<path fill="#FCFDFF" d="M17.1,4c-0.2,0-0.3,0.1-0.4,0.2l-9.3,9.3L1.8,7.8C1.7,7.7,1.6,7.6,1.4,7.6C1,7.6,0.8,7.9,0.8,8.2
			c0,0.2,0.1,0.3,0.2,0.4L7,14.7c0.1,0.1,0.3,0.2,0.4,0.2s0.3-0.1,0.4-0.2L17.6,5c0.1-0.1,0.2-0.3,0.2-0.4C17.7,4.3,17.5,4,17.1,4z"
			/>
	</g>
</g>
</svg>
