<?xml version="1.0" encoding="utf-8"?>
<!-- Generator: Adobe Illustrator 18.1.1, SVG Export Plug-In . SVG Version: 6.00 Build 0)  -->
<svg version="1.1" id="Layer_1" xmlns="http://www.w3.org/2000/svg" xmlns:xlink="http://www.w3.org/1999/xlink" x="0px" y="0px"
	 viewBox="0 0 27 27" enable-background="new 0 0 27 27" xml:space="preserve">
<path id="shop_1_" fill="#CBCBCB" d="M23,10.5l-1.8-2.5C21.1,8,21,7.9,20.9,7.8V4.9c0-0.7-0.6-1.2-1.2-1.2H7.3
	c-0.7,0-1.2,0.6-1.2,1.2v2.9C6,7.9,5.9,8,5.9,8.1L4,10.5c-0.2,0.3-0.4,0.7-0.4,1.1v0.6c0,1,0.8,1.8,1.8,1.8h0v8
	c0,0.7,0.6,1.2,1.2,1.2h13.6c0.7,0,1.2-0.6,1.2-1.2v-8h0c1,0,1.8-0.8,1.8-1.8v-0.6C23.4,11.3,23.2,10.9,23,10.5z M19.7,4.9v2.5H7.3
	h0V4.9H19.7z M9.9,12.9H7.3l2.5-4.3h1.3L9.9,12.9z M11.8,8.6h1.4v4.3h-2.6L11.8,8.6z M13.8,8.6h1.4l1.2,4.3h-2.6V8.6z M15.8,8.6h1.3
	l2.5,4.3h-2.6L15.8,8.6z M4.9,12.3v-0.6c0-0.1,0-0.3,0.1-0.4l1.8-2.5C7,8.7,7.1,8.6,7.3,8.6h1.8l-2.5,4.3H5.5
	C5.1,12.9,4.9,12.6,4.9,12.3z M16,22.1h-4.6V16H16V22.1z M20.3,22.1h-3.7V16c0-0.3-0.3-0.6-0.6-0.6h-4.6c-0.3,0-0.6,0.3-0.6,0.6v6.2
	h-4v-8h13.6V22.1z M22.1,12.3c0,0.3-0.3,0.6-0.6,0.6h-1.1l-2.5-4.3h1.8h0c0.2,0,0.4,0.1,0.5,0.2l1.8,2.5c0.1,0.1,0.1,0.2,0.1,0.4
	V12.3z"/>
</svg>
