<?xml version="1.0" encoding="utf-8"?>
<!-- Generator: Adobe Illustrator 13.0.0, SVG Export Plug-In . SVG Version: 6.00 Build 14948)  -->
<!DOCTYPE svg PUBLIC "-//W3C//DTD SVG 1.1//EN" "http://www.w3.org/Graphics/SVG/1.1/DTD/svg11.dtd">
<svg version="1.1" id="Layer_1" xmlns="http://www.w3.org/2000/svg" xmlns:xlink="http://www.w3.org/1999/xlink" x="0px" y="0px"
	 width="446.145px" height="442px" viewBox="81.6 173.867 446.145 442" enable-background="new 81.6 173.867 446.145 442"
	 xml:space="preserve">
<path id="shop_1_" fill="#CBCBCB" d="M521.333,328l-40.8-56.667c-2.267,0-4.533-2.267-6.8-4.534v-65.733
	c0-15.866-13.601-27.2-27.2-27.2H165.467c-15.867,0-27.2,13.6-27.2,27.2V266.8c-2.267,2.267-4.533,4.534-4.533,6.8L90.667,328
	c-4.533,6.8-9.066,15.867-9.066,24.934v13.6c0,22.667,18.133,40.801,40.8,40.801l0,0v181.333c0,15.866,13.6,27.199,27.2,27.199
	h308.266c15.867,0,27.2-13.6,27.2-27.199V407.334l0,0c22.667,0,40.801-18.134,40.801-40.801v-13.6
	C530.4,346.133,525.867,337.066,521.333,328z M446.533,201.066v56.667H165.467l0,0v-56.667H446.533z M224.4,382.4h-58.933
	l56.667-97.467H251.6L224.4,382.4z M267.467,284.934H299.2V382.4h-58.934L267.467,284.934z M312.8,284.934h31.733l27.2,97.466H312.8
	V284.934z M358.134,284.934H387.6l56.667,97.466h-58.934L358.134,284.934z M111.067,368.8v-13.6c0-2.267,0-6.8,2.267-9.067
	l40.8-56.667c4.533-2.267,6.8-4.533,11.333-4.533h40.8L149.6,382.4h-24.934C115.6,382.4,111.067,375.6,111.067,368.8z
	 M362.667,590.934H258.4V452.667h104.267V590.934z M460.133,590.934h-83.866V452.667c0-6.801-6.8-13.601-13.6-13.601H258.4
	c-6.8,0-13.6,6.8-13.6,13.601V593.2h-90.667V411.867H462.4v179.066H460.133z M500.934,368.8c0,6.8-6.8,13.6-13.601,13.6H462.4
	l-56.667-97.466h40.8l0,0c4.533,0,9.066,2.267,11.333,4.533l40.801,56.667c2.267,2.267,2.267,4.533,2.267,9.067V368.8L500.934,368.8
	z"/>
</svg>
