<?xml version="1.0" encoding="utf-8"?>
<!-- Generator: Adobe Illustrator 13.0.0, SVG Export Plug-In . SVG Version: 6.00 Build 14948)  -->
<!DOCTYPE svg PUBLIC "-//W3C//DTD SVG 1.1//EN" "http://www.w3.org/Graphics/SVG/1.1/DTD/svg11.dtd">
<svg version="1.1" id="Layer_1" xmlns="http://www.w3.org/2000/svg" xmlns:xlink="http://www.w3.org/1999/xlink" x="0px" y="0px"
	 width="578.558px" height="535.082px" viewBox="33.442 126.787 578.558 535.082"
	 enable-background="new 33.442 126.787 578.558 535.082" xml:space="preserve">
<g id="_x37_91-warning_x40_2x.png_47_">
	<g>
		<path fill="#9A9A9A" d="M321.049,518.065c-23.41,0-40.131,20.065-40.131,40.131c0,23.41,20.065,40.132,40.131,40.132
			c23.41,0,40.132-20.065,40.132-40.132C364.524,538.131,344.459,518.065,321.049,518.065z M321.049,581.606
			c-10.032,0-20.065-10.032-20.065-20.065s10.033-20.065,20.065-20.065c10.033,0,20.066,10.032,20.066,20.065
			C344.459,571.574,334.426,581.606,321.049,581.606z M280.918,334.131l20.065,143.803c0,10.032,10.033,20.065,20.065,20.065
			c10.033,0,20.066-10.033,20.066-20.065l20.065-143.803c0-10.033-10.033-20.066-20.065-20.066h-40.132
			C290.951,314.065,280.918,320.754,280.918,334.131z M321.049,477.935l-20.065-143.803h40.132L321.049,477.935z M608.656,631.771
			L608.656,631.771L341.115,136.82l0,0c-3.345-6.689-10.033-10.033-20.066-10.033c-10.032,0-13.377,3.344-16.721,10.033l0,0
			L36.787,631.771l0,0c-3.345,3.344-3.345,6.688-3.345,10.033c0,10.032,10.033,20.065,20.066,20.065h538.426
			c10.032,0,20.065-10.033,20.065-20.065C612,638.459,612,635.114,608.656,631.771z M571.869,641.804h-10.033H83.606H73.574H53.508
			l267.541-494.951L588.59,641.804H571.869z"/>
	</g>
</g>
</svg>
