<?xml version="1.0" encoding="utf-8"?>
<!-- Generator: Adobe Illustrator 13.0.0, SVG Export Plug-In . SVG Version: 6.00 Build 14948)  -->
<!DOCTYPE svg PUBLIC "-//W3C//DTD SVG 1.1//EN" "http://www.w3.org/Graphics/SVG/1.1/DTD/svg11.dtd">
<svg version="1.1" id="Layer_1" xmlns="http://www.w3.org/2000/svg" xmlns:xlink="http://www.w3.org/1999/xlink" x="0px" y="0px"
	 width="377.691px" height="375.943px" viewBox="117.154 208.028 377.691 375.943"
	 enable-background="new 117.154 208.028 377.691 375.943" xml:space="preserve">
<path opacity="0.25" enable-background="new    " d="M465.994,208.028L465.994,208.028h-299.88
	c-13.989,0-25.354,11.366-25.354,25.354v268.405l0,0c0,4.372,4.372,7.869,8.743,7.869s7.869-3.497,8.743-7.869l0,0V233.383
	c0-4.372,3.497-8.743,8.743-8.743h257.914c4.372,0,8.743,3.497,8.743,8.743v325.234c0,4.371-3.497,8.743-8.743,8.743H391.68
	c-3.497-1.749-15.737-6.994-15.737-16.611c0-10.492,15.737-16.612,16.612-16.612c3.497-1.748,6.119-5.245,5.245-9.617
	c-0.874-4.371-4.371-6.994-7.868-6.994H150.377c-18.36,0-33.223,14.863-33.223,33.224c0,18.359,14.863,33.223,33.223,33.223H379.44
	l0,0h44.588c13.989,0,25.354-11.366,25.354-25.354V236.006c0-12.24,14.863-11.366,15.737-11.366l0,0
	c6.994,0,13.114,6.12,13.114,13.114c0,6.994-6.12,13.114-13.114,13.114c-4.371,0-8.743,3.497-8.743,8.743
	c0,5.246,3.497,8.743,8.743,8.743c16.611,0,29.726-13.114,29.726-29.726C494.846,221.143,481.731,208.028,465.994,208.028z
	 M363.703,567.36H150.377c-8.743,0-16.611-6.994-16.611-16.611c0-8.743,6.994-16.612,16.611-16.612h213.326
	c-3.497,4.372-5.246,10.492-5.246,16.612C358.457,556.868,360.206,562.988,363.703,567.36z"/>
</svg>
