<?xml version="1.0" encoding="utf-8"?>
<!-- Generator: Adobe Illustrator 13.0.0, SVG Export Plug-In . SVG Version: 6.00 Build 14948)  -->
<!DOCTYPE svg PUBLIC "-//W3C//DTD SVG 1.1//EN" "http://www.w3.org/Graphics/SVG/1.1/DTD/svg11.dtd">
<svg version="1.1" id="Layer_1" xmlns="http://www.w3.org/2000/svg" xmlns:xlink="http://www.w3.org/1999/xlink" x="0px" y="0px"
	 width="587.52px" height="587.52px" viewBox="0 112.95 587.52 587.52" enable-background="new 0 112.95 587.52 587.52"
	 xml:space="preserve">
<g id="Sun">
	<g>
		<path fill="#5091CD" d="M100.98,406.71c0-14.28-11.22-25.5-25.5-25.5H25.5c-14.28,0-25.5,11.22-25.5,25.5
			c0,14.28,11.22,25.5,25.5,25.5h49.98C89.76,432.21,100.98,420.99,100.98,406.71z M125.46,549.51c-7.14,0-13.26,3.061-17.34,7.141
			L74.46,590.31c-4.08,4.08-7.14,11.221-7.14,17.341c0,14.279,11.22,25.5,25.5,25.5c7.14,0,13.26-3.061,17.34-7.141l33.66-33.66
			c4.08-4.08,7.14-11.22,7.14-17.34C150.96,560.729,139.74,549.51,125.46,549.51z M293.76,213.93c14.28,0,25.5-11.22,25.5-25.5
			v-49.98c0-14.28-11.22-25.5-25.5-25.5c-14.28,0-25.5,11.22-25.5,25.5v49.98C268.26,202.71,279.48,213.93,293.76,213.93z
			 M461.04,263.91c7.14,0,13.26-3.06,17.34-7.14l33.66-33.66c4.08-4.08,7.14-11.22,7.14-17.34c0-14.28-11.22-25.5-25.5-25.5
			c-7.14,0-13.26,3.06-17.34,7.14l-33.66,33.66c-4.08,4.08-7.14,11.22-7.14,17.34C436.56,252.69,447.78,263.91,461.04,263.91z
			 M108.12,256.77c4.08,4.08,11.22,7.14,17.34,7.14c14.28,0,25.5-11.22,25.5-25.5c0-7.14-3.06-13.26-7.14-17.34l-33.66-33.66
			c-5.1-4.08-11.22-7.14-18.36-7.14c-14.28,0-25.5,11.22-25.5,25.5c0,7.14,3.06,13.26,7.14,17.34L108.12,256.77z M562.02,381.21
			H512.04c-14.28,0-25.5,11.22-25.5,25.5c0,14.28,11.22,25.5,25.5,25.5h49.979c14.28,0,25.5-11.22,25.5-25.5
			C586.5,392.43,575.28,381.21,562.02,381.21z M479.4,556.65c-4.08-4.08-11.221-7.141-17.341-7.141c-14.279,0-25.5,11.22-25.5,25.5
			c0,7.141,3.061,13.26,7.141,17.34l33.66,33.66c4.08,4.08,11.22,7.141,17.34,7.141c14.28,0,25.5-11.221,25.5-25.5
			c0-7.141-3.061-13.261-7.141-17.341L479.4,556.65z M293.76,599.49c-14.28,0-25.5,11.22-25.5,25.5v49.979
			c0,14.28,11.22,25.5,25.5,25.5c14.28,0,25.5-11.22,25.5-25.5V624.99C318.24,610.71,307.02,599.49,293.76,599.49z M293.76,230.25
			c-96.9,0-176.46,78.54-176.46,176.46s78.54,176.46,176.46,176.46S469.2,503.61,469.2,406.71
			C469.2,309.81,390.66,230.25,293.76,230.25z M293.76,532.17c-69.36,0-125.46-56.1-125.46-125.46
			c0-69.36,56.1-125.46,125.46-125.46c69.36,0,125.46,56.1,125.46,125.46C419.22,476.07,363.12,532.17,293.76,532.17z"/>
	</g>
</g>
</svg>
