<?xml version="1.0" encoding="utf-8"?>
<!-- Generator: Adobe Illustrator 13.0.0, SVG Export Plug-In . SVG Version: 6.00 Build 14948)  -->
<!DOCTYPE svg PUBLIC "-//W3C//DTD SVG 1.1//EN" "http://www.w3.org/Graphics/SVG/1.1/DTD/svg11.dtd">
<svg version="1.1" id="Layer_1" xmlns="http://www.w3.org/2000/svg" xmlns:xlink="http://www.w3.org/1999/xlink" x="0px" y="0px"
	 width="511.332px" height="435.431px" viewBox="39.948 173.091 511.332 435.431"
	 enable-background="new 39.948 173.091 511.332 435.431" xml:space="preserve">
<g id="Cloud_x5F_Sun">
	<g>
		<path fill="#5091CD" d="M345.948,247.394c10.386,0,18.376-7.989,18.376-18.376v-37.551c0-10.386-7.99-18.376-18.376-18.376
			c-10.387,0-18.376,7.99-18.376,18.376v37.551C326.772,238.605,335.562,247.394,345.948,247.394z M418.652,455.123
			c20.773-19.176,33.557-46.34,33.557-76.7c0-58.324-47.139-106.261-106.261-106.261c-35.154,0-66.314,17.577-85.489,43.943
			c-12.783-3.995-25.566-6.392-39.149-6.392c-69.509,0-126.235,54.329-130.229,123.039c-30.36,15.18-51.133,46.34-51.133,82.292
			c0,51.933,41.546,93.479,93.478,93.479h250.073c44.741,0,80.694-35.953,80.694-80.695
			C464.193,495.869,445.817,467.906,418.652,455.123z M345.948,309.713c37.551,0,68.71,31.159,68.71,68.71
			c0,12.783-3.196,23.969-9.588,34.354c-14.381-30.359-45.54-51.932-80.694-52.73c-7.989-10.386-18.376-19.175-28.762-27.165
			C307.598,318.501,325.175,309.713,345.948,309.713z M383.499,571.771H133.426c-31.16,0-55.927-25.566-55.927-55.927
			c0-20.773,11.186-39.948,30.36-49.536l18.376-9.587l1.598-22.371c3.196-49.535,43.942-87.885,93.478-87.885
			c28.763,0,55.927,12.783,73.504,35.953L305.201,396l17.577,0.799c30.36,0.799,54.329,25.566,54.329,55.927v24.768l23.169,9.588
			c15.979,7.19,27.165,22.371,27.165,39.947C426.643,551.796,407.468,571.771,383.499,571.771z M445.817,296.93
			c4.794,0,9.587-2.397,13.582-5.593l24.768-24.768c3.196-3.196,5.593-7.99,5.593-13.583c0-10.386-7.989-18.376-18.376-18.376
			c-4.794,0-9.588,2.397-13.582,5.593l-24.768,24.768c-3.196,3.196-5.593,7.99-5.593,13.583
			C426.643,288.94,435.431,296.93,445.817,296.93z M232.496,291.337c3.196,3.196,7.99,5.593,13.582,5.593
			c10.387,0,18.376-7.99,18.376-18.376c0-4.794-2.396-9.588-5.592-13.583l-24.768-24.768c-3.196-3.196-7.99-5.593-13.583-5.593
			c-10.386,0-18.376,7.99-18.376,18.376c0,4.794,2.397,9.587,5.593,13.583L232.496,291.337z M532.903,359.248h-37.551
			c-10.387,0-18.376,7.99-18.376,18.376S484.966,396,495.353,396h37.551c10.387,0,18.376-7.99,18.376-18.376
			C551.279,368.037,543.29,359.248,532.903,359.248z"/>
	</g>
</g>
</svg>
