<?xml version="1.0" encoding="utf-8"?>
<!-- Generator: Adobe Illustrator 18.0.0, SVG Export Plug-In . SVG Version: 6.00 Build 0)  -->
<!DOCTYPE svg PUBLIC "-//W3C//DTD SVG 1.1//EN" "http://www.w3.org/Graphics/SVG/1.1/DTD/svg11.dtd">
<svg version="1.1" id="Layer_1" xmlns="http://www.w3.org/2000/svg" xmlns:xlink="http://www.w3.org/1999/xlink" x="0px" y="0px"
	 viewBox="0 0 16 16" enable-background="new 0 0 16 16" xml:space="preserve">
<g id="_x37_11-trash_x40_2x.png_3_">
	<g>
		<path fill="#9698A9" d="M6.3,13.3c0.1,0,0.2-0.1,0.2-0.3L6.1,4.4c0-0.1-0.1-0.2-0.3-0.2S5.6,4.2,5.6,4.4l0.5,8.7
			C6.1,13.2,6.2,13.3,6.3,13.3z M8,13.3c0.1,0,0.2-0.1,0.2-0.2V4.4c0-0.1-0.1-0.2-0.2-0.2S7.8,4.2,7.8,4.4v8.7
			C7.8,13.2,7.9,13.3,8,13.3z M12.8,2.7h-2.7V2.2c0-0.5-0.4-1-1-1H6.8c-0.5,0-1,0.4-1,1v0.5H3.2C3,2.7,2.9,2.8,2.9,2.9
			c0,0.1,0.1,0.2,0.2,0.2h0.2l1,10.7c0,0.5,0.4,1,1,1h5.3c0.5,0,1-0.4,1-1l1-10.7h0.2c0.1,0,0.2-0.1,0.2-0.2
			C13.1,2.8,13,2.7,12.8,2.7z M6.3,2.2c0-0.3,0.2-0.5,0.5-0.5h2.4c0.3,0,0.5,0.2,0.5,0.5v0.5H6.3V2.2z M11.1,13.8
			c0,0.3-0.2,0.5-0.5,0.5H5.3c-0.3,0-0.5-0.2-0.5-0.5l-1-10.7h8.2L11.1,13.8z M9.7,13.3c0.1,0,0.2-0.1,0.3-0.2l0.5-8.7
			c0-0.1-0.1-0.2-0.2-0.3c-0.1,0-0.2,0.1-0.3,0.2l-0.5,8.7C9.4,13.2,9.5,13.3,9.7,13.3z"/>
	</g>
</g>
</svg>
