<?xml version="1.0" encoding="utf-8"?>
<!-- Generator: Adobe Illustrator 18.1.1, SVG Export Plug-In . SVG Version: 6.00 Build 0)  -->
<svg version="1.1" id="Layer_1" xmlns="http://www.w3.org/2000/svg" xmlns:xlink="http://www.w3.org/1999/xlink" x="0px" y="0px"
	 viewBox="0 0 70 58" enable-background="new 0 0 70 58" xml:space="preserve">
<path fill="#5BC1AE" d="M53.3,7.5L53.3,7.5H19c-1.6,0-2.9,1.3-2.9,2.9v30.7h0c0,0.5,0.5,0.9,1,0.9s0.9-0.4,1-0.9h0V10.4
	c0-0.5,0.4-1,1-1h29.5c0.5,0,1,0.4,1,1v37.2c0,0.5-0.4,1-1,1h-3.8c-0.4-0.2-1.8-0.8-1.8-1.9c0-1.2,1.8-1.9,1.9-1.9
	c0.4-0.2,0.7-0.6,0.6-1.1c-0.1-0.5-0.5-0.8-0.9-0.8H17.2c-2.1,0-3.8,1.7-3.8,3.8s1.7,3.8,3.8,3.8h26.2c0,0,0,0,0,0h5.1
	c1.6,0,2.9-1.3,2.9-2.9V10.7c0-1.4,1.7-1.3,1.8-1.3h0c0.8,0,1.5,0.7,1.5,1.5c0,0.8-0.7,1.5-1.5,1.5c-0.5,0-1,0.4-1,1s0.4,1,1,1
	c1.9,0,3.4-1.5,3.4-3.4C56.6,9,55.1,7.5,53.3,7.5z M41.6,48.6H17.2c-1,0-1.9-0.8-1.9-1.9c0-1,0.8-1.9,1.9-1.9h24.4
	C41.2,45.3,41,46,41,46.7C41,47.4,41.2,48.1,41.6,48.6z"/>
</svg>
