<?xml version="1.0" encoding="utf-8"?>
<!-- Generator: Adobe Illustrator 18.1.1, SVG Export Plug-In . SVG Version: 6.00 Build 0)  -->
<svg version="1.1" id="Layer_1" xmlns="http://www.w3.org/2000/svg" xmlns:xlink="http://www.w3.org/1999/xlink" x="0px" y="0px"
	 viewBox="0 0 30 30" enable-background="new 0 0 30 30" xml:space="preserve">
<g>
	<path fill="#69767F" d="M25.1,10.9h-0.4c-0.4-5.3-4.7-9.5-9.8-9.5c-5.1,0-9.3,4.2-9.8,9.5H4.9c-1.1,0-1.9,0.9-1.9,1.9v7.5
		c0,1.1,0.9,1.9,1.9,1.9H7c1.1,0,1.9-0.9,1.9-1.9v-7.5c0-1.1-0.9-1.9-1.9-1.9H6.2c0.4-4.8,4.2-8.5,8.7-8.5s8.3,3.7,8.7,8.5H23
		c-1.1,0-1.9,0.9-1.9,1.9v7.5c0,0.9,0.6,1.7,1.5,1.9l0.9,0c0,0.6,0,1.8-0.8,2.8c-0.7,0.8-1.7,1.3-3.2,1.5c-0.2-0.4-0.6-0.6-1.1-0.6
		h-2c-0.7,0-1.3,0.6-1.3,1.3c0,0.7,0.6,1.3,1.3,1.3h2c0.6,0,1.1-0.4,1.3-1c1.7-0.2,3-0.8,3.8-1.8c1-1.2,1.1-2.6,1.1-3.5h0.5
		c1.1,0,1.9-0.9,1.9-1.9v-7.5C27,11.8,26.1,10.9,25.1,10.9z M7.9,12.9v7.5c0,0.5-0.4,0.9-0.9,0.9H4.9c-0.5,0-0.9-0.4-0.9-0.9v-7.5
		c0-0.5,0.4-0.9,0.9-0.9H7C7.5,12,7.9,12.4,7.9,12.9z M25.9,20.4c0,0.5-0.4,0.9-0.9,0.9l-2.3,0c-0.4-0.1-0.6-0.4-0.6-0.8v-7.5
		c0-0.5,0.4-0.9,0.9-0.9h2.1c0.5,0,0.9,0.4,0.9,0.9V20.4z"/>
</g>
</svg>
