<?xml version="1.0" encoding="utf-8"?>
<!-- Generator: Adobe Illustrator 18.1.1, SVG Export Plug-In . SVG Version: 6.00 Build 0)  -->
<svg version="1.1" id="Layer_1" xmlns="http://www.w3.org/2000/svg" xmlns:xlink="http://www.w3.org/1999/xlink" x="0px" y="0px"
	 viewBox="0 0 62 62" enable-background="new 0 0 62 62" xml:space="preserve">
<g>
	<path opacity="0.1" fill="#9698A9" d="M55.7,58.9H6.3c-2.2,0-4-1.8-4-4V7.1c0-2.2,1.8-4,4-4h49.3c2.2,0,4,1.8,4,4v47.8
		C59.7,57.1,57.9,58.9,55.7,58.9z"/>
	<g id="_x39_59-thermometer_x40_2x.png_3_" opacity="0.25">
		<g>
			<path fill="#9698A9" d="M32.5,34.4v-7.6c0-0.2-0.2-0.4-0.4-0.4s-0.4,0.2-0.4,0.4v8c0.9,0.3,1.5,1.1,1.5,2.1c0,1.2-1,2.3-2.3,2.3
				s-2.3-1-2.3-2.3c0-1,0.6-1.8,1.5-2.1v-1.6c0-0.2-0.2-0.4-0.4-0.4c-0.2,0-0.4,0.2-0.4,0.4v1.1c0,0,0,0,0,0
				C28.6,34.9,28,35.9,28,37c0,1.7,1.3,3,3,3s3-1.3,3-3C34,35.9,33.4,34.9,32.5,34.4z M34,33.7V23.5c0-1.7-1.3-3-3-3s-3,1.3-3,3
				v10.2c-0.9,0.8-1.5,2-1.5,3.4c0,2.5,2,4.5,4.5,4.5s4.5-2,4.5-4.5C35.5,35.7,34.9,34.5,34,33.7z M31,40.8c-2.1,0-3.8-1.7-3.8-3.8
				c0-1.2,0.6-2.3,1.5-3v-2.3h1.1c0.2,0,0.4-0.2,0.4-0.4c0-0.2-0.2-0.4-0.4-0.4h-1.1v-1.5h1.9c0.2,0,0.4-0.2,0.4-0.4
				c0-0.2-0.2-0.4-0.4-0.4h-1.9v-1.5h1.1c0.2,0,0.4-0.2,0.4-0.4c0-0.2-0.2-0.4-0.4-0.4h-1.1V25h1.9c0.2,0,0.4-0.2,0.4-0.4
				s-0.2-0.4-0.4-0.4h-1.9v-0.8c0-1.2,1-2.3,2.3-2.3s2.3,1,2.3,2.3V34c0.9,0.7,1.5,1.8,1.5,3C34.8,39.1,33.1,40.8,31,40.8z"/>
		</g>
	</g>
</g>
</svg>
