<?xml version="1.0" encoding="utf-8"?>
<!-- Generator: Adobe Illustrator 18.1.1, SVG Export Plug-In . SVG Version: 6.00 Build 0)  -->
<svg version="1.1" id="Layer_1" xmlns="http://www.w3.org/2000/svg" xmlns:xlink="http://www.w3.org/1999/xlink" x="0px" y="0px"
	 viewBox="0 0 27 27" enable-background="new 0 0 27 27" xml:space="preserve">
<path fill="#CBCBCB" d="M20,9.3c-1.7-1.5-4-2.4-6.5-2.4c-5.5,0-10,4.5-10,10c0,0.1,0,1.5,0,1.7v1.5h19.9v-1.4l0-0.1
	c0-0.1,0-1.5,0-1.7C23.5,12,20,9.3,20,9.3z M5.9,18.6c0-0.1,0-1.4,0-1.5H8v-0.7H6.1c0,0-0.1,0-0.1,0c0.1-1.7,0.7-3.4,2-4.8L8,11.6
	L8,11.7L9.4,13l0.4-0.4l-1.4-1.4c1.3-1.2,3-1.9,4.8-2l0.1,0c0,0,0,0,0,0v2h0.5v-2c0.3,0,0.5,0,0.8,0.1c1.5,0.2,2.9,0.9,4.1,1.9
	l-1.4,1.4l0.4,0.4l1.4-1.4l0.1-0.1l0.1,0.1c1.2,1.3,1.9,3,2,4.8h-2v0.7l2.1,0c0,0,0,1.4,0,1.5L5.9,18.6z M16.2,13.8
	c0,0-3.3,1-3.9,1.6c-0.6,0.6-0.6,1.6,0,2.3c0.6,0.6,1.6,0.6,2.3,0C15.2,17.1,16.2,13.8,16.2,13.8z"/>
</svg>
