<?xml version="1.0" encoding="utf-8"?>
<!-- Generator: Adobe Illustrator 18.1.1, SVG Export Plug-In . SVG Version: 6.00 Build 0)  -->
<svg version="1.1" id="Layer_1" xmlns="http://www.w3.org/2000/svg" xmlns:xlink="http://www.w3.org/1999/xlink" x="0px" y="0px"
	 viewBox="0 0 27 27" enable-background="new 0 0 27 27" xml:space="preserve">
<g>
	<path fill="#CBCBCB" d="M13.5,3.5c-5.5,0-10,4.5-10,10s4.5,10,10,10s10-4.5,10-10S19,3.5,13.5,3.5z M13.5,22C8.8,22,5,18.2,5,13.5
		S8.8,5,13.5,5S22,8.8,22,13.5S18.2,22,13.5,22z"/>
	<path fill="#CBCBCB" d="M17.3,15.1c0-0.5-0.1-1-0.4-1.4c-0.3-0.4-0.6-0.7-1.1-0.9c-0.4-0.2-1.2-0.4-2.3-0.6c-0.7-0.2-0.9-0.3-1-0.4
		c-0.2-0.1-0.2-0.3-0.2-0.6c0-0.3,0.2-0.8,1.2-0.8c0.5,0,1,0.1,1.3,0.4c0.1,0.1,0.2,0.2,0.3,0.3l0,0l0,0c0,0.1,0.1,0.1,0.2,0.1h1.6
		c0.1,0,0.2-0.1,0.2-0.2c0,0,0-0.1-0.1-0.2c-0.4-1.1-1.3-1.8-2.6-2V8c0-0.2-0.1-0.3-0.3-0.3h-1.3c-0.2,0-0.3,0.1-0.3,0.3v1
		c-0.8,0.2-1.4,0.5-1.8,0.9c-0.4,0.5-0.7,1.1-0.7,1.8c0,0.6,0.2,1.1,0.6,1.6c0.4,0.5,1.4,0.9,3,1.2c0.5,0.1,0.8,0.2,1,0.3
		c0.2,0.2,0.4,0.4,0.4,0.7c0,0.4-0.2,0.8-1.3,0.8c-0.4,0-0.7-0.1-1-0.2c-0.4-0.2-0.7-0.4-0.9-0.8l0,0l0,0c0-0.1-0.1-0.1-0.2-0.1H9.9
		c-0.1,0-0.2,0.1-0.2,0.2c0,0,0,0.1,0,0.1c0.4,1.4,1.4,2.2,2.9,2.5v1c0,0.2,0.1,0.3,0.3,0.3h1.3c0.2,0,0.3-0.1,0.3-0.3v-1
		c0.9-0.1,1.5-0.4,2.1-0.9C17.1,16.6,17.3,15.9,17.3,15.1z"/>
</g>
</svg>
