<?xml version="1.0" encoding="utf-8"?>
<!-- Generator: Adobe Illustrator 18.1.1, SVG Export Plug-In . SVG Version: 6.00 Build 0)  -->
<svg version="1.1" id="Layer_1" xmlns="http://www.w3.org/2000/svg" xmlns:xlink="http://www.w3.org/1999/xlink" x="0px" y="0px"
	 viewBox="0 0 29.7 36" enable-background="new 0 0 29.7 36" xml:space="preserve">
<g id="Icons_with_numbers_1_">
	<g id="Group_1_" transform="translate(-192.000000, -336.000000)">
		<path id="Rectangle_317_1_" fill="#83BBE5" d="M199.8,341.8v6h20v-6H199.8z M199.8,339.8h19.9c1.1,0,2,0.9,2,2v27.9
			c0,1.1-0.9,2-2,2h-19.9c-1.1,0-2-0.9-2-2v-27.9C197.8,340.7,198.7,339.8,199.8,339.8z M201.8,351.8v4h4v-4H201.8z M207.8,351.8v4
			h4v-4H207.8z M213.8,351.8v4h4v-4H213.8z M201.8,357.8v4h4v-4H201.8z M207.8,357.8v4h4v-4H207.8z M213.8,357.8v4h4v-4H213.8z
			 M201.8,363.8v4h4v-4H201.8z M207.8,363.8v4h4v-4H207.8z M213.8,363.8v4h4v-4H213.8z"/>
	</g>
</g>
</svg>
