<?xml version="1.0" encoding="utf-8"?>
<!-- Generator: Adobe Illustrator 18.1.1, SVG Export Plug-In . SVG Version: 6.00 Build 0)  -->
<svg version="1.1" xmlns="http://www.w3.org/2000/svg" xmlns:xlink="http://www.w3.org/1999/xlink" x="0px" y="0px"
	 viewBox="0 0 20.1 13.9" enable-background="new 0 0 20.1 13.9" xml:space="preserve">
<g id="Layer_2_copy">
</g>
<g id="Layer_2">
</g>
<g id="Layer_1">
</g>
<g id="Layer_6">
</g>
<g id="Used_Elements">
	<g id="Not_Used">
	</g>
	<g>
		<path fill="none" stroke="#9698A9" stroke-width="0.75" stroke-miterlimit="10" d="M18.7,13.5H1.4c-0.6,0-1-0.4-1-1V1.4
			c0-0.6,0.4-1,1-1h17.4c0.6,0,1,0.4,1,1v11.1C19.7,13.1,19.3,13.5,18.7,13.5z"/>
		<g>
			<path id="path2268" fill="#9698A9" d="M16.9,6.9c0,2.3-1.8,4.1-4.1,4.1c-2.3,0-4.1-1.8-4.1-4.1v0c0-2.3,1.8-4.1,4.1-4.1
				C15.1,2.8,16.9,4.7,16.9,6.9L16.9,6.9z"/>
			<path id="path1350" fill="#898A95" d="M7.3,2.8C5,2.8,3.2,4.7,3.2,6.9c0,2.3,1.8,4.1,4.1,4.1c1.1,0,2-0.4,2.8-1.1l0,0h0
				c0.1-0.1,0.3-0.3,0.4-0.4H9.6C9.5,9.4,9.4,9.3,9.3,9.1h1.5C10.9,9,11,8.8,11,8.7H9.1C9,8.5,9,8.4,8.9,8.3h2.3
				c0.1-0.4,0.2-0.8,0.2-1.3c0-0.3,0-0.6-0.1-0.9H8.8c0-0.1,0.1-0.3,0.1-0.4h2.3c-0.1-0.2-0.1-0.3-0.2-0.4H9.1
				C9.2,5,9.2,4.9,9.3,4.8h1.5c-0.1-0.2-0.2-0.3-0.3-0.4H9.7C9.8,4.2,9.9,4,10.1,3.9C9.3,3.2,8.4,2.8,7.3,2.8
				C7.3,2.8,7.3,2.8,7.3,2.8z"/>
			<g>
				<g id="g13802" transform="translate(-13.74405,15.9939)">
					<path id="path13804" fill="#56575B" d="M22.4-7.9l0.1-0.4c0,0-0.1,0-0.1,0c-0.2,0-0.2-0.1-0.2-0.1l0.2-0.7h0.2l0-0.4h-0.2
						l0-0.3H22c0,0-0.3,1.4-0.3,1.6c0,0.3,0.1,0.4,0.3,0.4C22.2-7.8,22.4-7.9,22.4-7.9z"/>
					<path id="path13806" fill="#56575B" d="M22.5-8.6c0,0.6,0.4,0.8,0.8,0.8c0.3,0,0.5-0.1,0.5-0.1l0.1-0.4c0,0-0.3,0.1-0.5,0.1
						c-0.5,0-0.4-0.4-0.4-0.4l0.9,0c0,0,0.1-0.3,0.1-0.4c0-0.3-0.2-0.6-0.6-0.6C22.9-9.6,22.5-9.1,22.5-8.6z M23.3-9.2
						c0.2,0,0.2,0.3,0.2,0.3H23C23-8.9,23.1-9.2,23.3-9.2z"/>
					<path id="path13808" fill="#56575B" d="M26.1-7.9l0.1-0.5c0,0-0.2,0.1-0.4,0.1c-0.3,0-0.4-0.2-0.4-0.5c0-0.5,0.3-0.8,0.6-0.8
						c0.2,0,0.4,0.1,0.4,0.1l0.1-0.5c0,0-0.2-0.2-0.4-0.2c-0.7,0-1.1,0.5-1.1,1.3c0,0.5,0.3,0.9,0.8,0.9C25.9-7.8,26.1-7.9,26.1-7.9
						z"/>
					<path id="path13810" fill="#56575B" d="M20-9.6c-0.3,0-0.5,0.1-0.5,0.1l-0.1,0.4c0,0,0.2-0.1,0.5-0.1c0.2,0,0.3,0,0.3,0.2
						c0,0.1,0,0.1,0,0.1s-0.1,0-0.2,0c-0.4,0-0.8,0.2-0.8,0.6c0,0.4,0.3,0.5,0.4,0.5C19.9-7.8,20-8,20-8l0,0.2h0.4l0.2-1.2
						C20.6-9.6,20.2-9.6,20-9.6z M20.1-8.6c0,0.1,0,0.4-0.3,0.4c-0.1,0-0.2-0.1-0.2-0.2C19.6-8.5,19.7-8.6,20.1-8.6
						C20.1-8.6,20.1-8.6,20.1-8.6z"/>
					<path id="path13812" fill="#56575B" d="M21-7.8c0.1,0,0.7,0,0.7-0.6c0-0.5-0.5-0.4-0.5-0.7c0-0.1,0.1-0.1,0.2-0.1
						c0.1,0,0.3,0,0.3,0l0.1-0.4c0,0-0.2,0-0.4,0c-0.3,0-0.7,0.1-0.7,0.6c0,0.5,0.5,0.5,0.5,0.7c0,0.1-0.2,0.2-0.3,0.2
						c-0.2,0-0.4-0.1-0.4-0.1l-0.1,0.4C20.5-7.9,20.6-7.8,21-7.8z"/>
					<path id="path13814" fill="#56575B" d="M29.7-9.9l-0.1,0.6c0,0-0.2-0.2-0.4-0.2c-0.5,0-0.7,0.5-0.7,1c0,0.4,0.2,0.7,0.5,0.7
						c0.3,0,0.4-0.2,0.4-0.2l0,0.2h0.4l0.3-2.1L29.7-9.9z M29.5-8.8c0,0.2-0.1,0.5-0.4,0.5c-0.2,0-0.2-0.1-0.2-0.3
						c0-0.3,0.2-0.6,0.3-0.6C29.4-9.1,29.5-9,29.5-8.8z"/>
					<path id="path13816" fill="#56575B" d="M17.6-7.8l0.3-1.6l0,1.6h0.3l0.6-1.6l-0.2,1.6H19l0.3-2.1l-0.7,0l-0.4,1.3l0-1.3h-0.7
						l-0.4,2.1H17.6L17.6-7.8z"/>
					<path id="path13818" fill="#56575B" d="M24.4-7.8c0.1-0.7,0.2-1.3,0.5-1.2c0.1-0.3,0.2-0.5,0.2-0.6c0,0,0,0-0.1,0
						c-0.2,0-0.5,0.4-0.5,0.4l0-0.2h-0.4l-0.3,1.7H24.4L24.4-7.8z"/>
					<g id="use14699" transform="translate(845.3001,0)">
						<path id="path13810_1_" fill="#56575B" d="M-818.3-9.6c-0.3,0-0.5,0.1-0.5,0.1l-0.1,0.4c0,0,0.2-0.1,0.5-0.1
							c0.2,0,0.3,0,0.3,0.2c0,0.1,0,0.1,0,0.1s-0.1,0-0.2,0c-0.4,0-0.8,0.2-0.8,0.6c0,0.4,0.3,0.5,0.4,0.5c0.3,0,0.4-0.2,0.4-0.2
							l0,0.2h0.4l0.2-1.2C-817.7-9.6-818.1-9.6-818.3-9.6z M-818.2-8.6c0,0.1,0,0.4-0.3,0.4c-0.1,0-0.2-0.1-0.2-0.2
							C-818.7-8.5-818.6-8.6-818.2-8.6C-818.2-8.6-818.2-8.6-818.2-8.6z"/>
					</g>
					<path id="use14701" fill="#56575B" d="M28.1-7.8c0.1-0.5,0.2-1.3,0.5-1.2c0.1-0.3,0-0.3-0.1-0.3c-0.2,0-0.2,0-0.2,0l0-0.2h-0.4
						l-0.3,1.7H28.1L28.1-7.8z"/>
				</g>
				<path id="path4157" fill="#FFFFFF" d="M8.8,8l0.1-0.4c0,0-0.1,0-0.1,0c-0.2,0-0.2-0.1-0.2-0.1l0.1-0.8h0.2L9,6.3H8.8l0-0.3H8.4
					c0,0-0.3,1.4-0.3,1.6c0,0.3,0.1,0.4,0.3,0.4C8.6,8,8.7,8,8.8,8z"/>
				<path id="path4155" fill="#FFFFFF" d="M8.9,7.3C8.9,7.9,9.3,8,9.7,8C10,8,10.1,8,10.1,8l0.1-0.4c0,0-0.2,0.1-0.5,0.1
					c-0.5,0-0.4-0.4-0.4-0.4h0.9c0,0,0.1-0.3,0.1-0.4c0-0.3-0.1-0.6-0.6-0.6C9.2,6.3,8.9,6.7,8.9,7.3z M9.7,6.7
					c0.2,0,0.2,0.3,0.2,0.3H9.4C9.4,6.9,9.4,6.7,9.7,6.7z"/>
				<path id="path4151" fill="#FFFFFF" d="M12.5,8l0.1-0.5c0,0-0.2,0.1-0.4,0.1c-0.3,0-0.4-0.2-0.4-0.5c0-0.5,0.3-0.8,0.6-0.8
					c0.2,0,0.4,0.1,0.4,0.1L12.8,6c0,0-0.3-0.1-0.5-0.1c-0.5,0-1,0.4-1,1.3c0,0.5,0.3,0.9,0.8,0.9C12.2,8.1,12.5,8,12.5,8z"/>
				<path id="path4149" fill="#FFFFFF" d="M6.4,6.3c-0.3,0-0.5,0.1-0.5,0.1L5.8,6.8c0,0,0.2-0.1,0.5-0.1c0.2,0,0.3,0,0.3,0.2
					c0,0.1,0,0.1,0,0.1s-0.1,0-0.2,0C6,6.9,5.6,7.1,5.6,7.6C5.6,8,5.8,8,6,8c0.3,0,0.4-0.2,0.4-0.2l0,0.2h0.4L7,6.8
					C7,6.3,6.5,6.3,6.4,6.3z M6.5,7.3c0,0.1,0,0.4-0.3,0.4C6,7.7,6,7.6,6,7.5C6,7.4,6,7.3,6.5,7.3C6.4,7.3,6.5,7.3,6.5,7.3z"/>
				<path id="path4145" fill="#FFFFFF" d="M7.4,8C7.5,8,8,8.1,8,7.5C8,6.9,7.5,7,7.5,6.8c0-0.1,0.1-0.1,0.2-0.1c0.1,0,0.3,0,0.3,0
					l0.1-0.4c0,0-0.2,0-0.4,0c-0.3,0-0.7,0.1-0.7,0.6c0,0.5,0.5,0.5,0.5,0.7c0,0.1-0.2,0.2-0.3,0.2c-0.2,0-0.4-0.1-0.4-0.1L6.9,8
					C6.9,8,7,8,7.4,8z"/>
				<path id="path4139" fill="#FFFFFF" d="M16.1,5.9L16,6.5c0,0-0.2-0.2-0.4-0.2c-0.4,0-0.7,0.5-0.7,1C14.8,7.7,15,8,15.4,8
					c0.3,0,0.4-0.2,0.4-0.2l0,0.2h0.4l0.3-2.1L16.1,5.9z M15.9,7.1c0,0.2-0.1,0.5-0.4,0.5c-0.2,0-0.2-0.1-0.2-0.3
					c0-0.3,0.2-0.6,0.3-0.6C15.8,6.7,15.9,6.8,15.9,7.1z"/>
				<path id="path4133" fill="#FFFFFF" d="M4,8l0.3-1.6l0,1.6h0.3l0.6-1.6L4.9,8h0.4l0.3-2.1H5L4.6,7.2l0-1.3H3.9L3.6,8H4z"/>
				<path id="path4149_1_" fill="#FFFFFF" d="M13.5,6.3c-0.3,0-0.5,0.1-0.5,0.1l-0.1,0.4c0,0,0.2-0.1,0.5-0.1c0.2,0,0.3,0,0.3,0.2
					c0,0.1,0,0.1,0,0.1s-0.1,0-0.2,0c-0.4,0-0.8,0.2-0.8,0.6C12.7,8,12.9,8,13.1,8c0.3,0,0.4-0.2,0.4-0.2l0,0.2h0.4l0.2-1.2
					C14.1,6.3,13.6,6.3,13.5,6.3z M13.6,7.3c0,0.1,0,0.4-0.3,0.4c-0.1,0-0.2-0.1-0.2-0.2C13.1,7.4,13.1,7.3,13.6,7.3
					C13.5,7.3,13.6,7.3,13.6,7.3z"/>
				<path id="path4131_1_" fill="#FFFFFF" d="M14.4,8c0.1-0.7,0.2-1.3,0.5-1.2C14.9,6.5,15,6.4,15,6.3c0,0,0,0-0.1,0
					c-0.2,0-0.3,0.3-0.3,0.3l0-0.2h-0.4L14,8H14.4z"/>
				<path id="path4131" fill="#FFFFFF" d="M10.7,8c0.1-0.7,0.2-1.3,0.5-1.2c0.1-0.3,0.1-0.4,0.2-0.5c0,0,0,0-0.1,0
					c-0.2,0-0.3,0.3-0.3,0.3l0-0.2h-0.4L10.3,8H10.7z"/>
			</g>
		</g>
	</g>
</g>
<g id="Layer_7">
</g>
</svg>
