<?xml version="1.0" encoding="utf-8"?>
<!-- Generator: Adobe Illustrator 18.1.1, SVG Export Plug-In . SVG Version: 6.00 Build 0)  -->
<svg version="1.1" id="Layer_1" xmlns="http://www.w3.org/2000/svg" xmlns:xlink="http://www.w3.org/1999/xlink" x="0px" y="0px"
	 viewBox="0 0 21.5 21.1" enable-background="new 0 0 21.5 21.1" xml:space="preserve">
<path opacity="0.96" fill="#83BBE5" d="M17.6,14.3l3.9-4.5h-2.7c-0.3-4.1-3.7-7.3-7.8-7.3c-4.3,0-7.9,3.5-7.9,7.9s3.5,7.9,7.9,7.9
	c1.8,0,3.4-0.6,4.8-1.7l0.3-0.2l-1.8-1.9l-0.3,0.2c-0.9,0.7-2,1-3.1,1c-2.9,0-5.3-2.4-5.3-5.3S8.1,5.1,11,5.1c2.7,0,5,2.1,5.2,4.7
	h-3L17.6,14.3z"/>
</svg>
