<?xml version="1.0" encoding="utf-8"?>
<!-- Generator: Adobe Illustrator 18.1.1, SVG Export Plug-In . SVG Version: 6.00 Build 0)  -->
<svg version="1.1" id="Layer_1" xmlns="http://www.w3.org/2000/svg" xmlns:xlink="http://www.w3.org/1999/xlink" x="0px" y="0px"
	 viewBox="0 0 18.4 21.9" enable-background="new 0 0 18.4 21.9" xml:space="preserve">
<path fill="#5091CD" d="M14.5,12.3l3.9-4.5h-2.7C15.4,3.7,12,0.5,7.9,0.5C3.5,0.5,0,4,0,8.4s3.5,7.9,7.9,7.9c1.8,0,3.4-0.6,4.8-1.7
	l0.3-0.2l-1.8-1.9L11,12.7c-0.9,0.7-2,1-3.1,1c-2.9,0-5.3-2.4-5.3-5.3S5,3.1,7.9,3.1c2.7,0,5,2.1,5.2,4.7h-3L14.5,12.3z"/>
</svg>
