<?xml version="1.0" encoding="utf-8"?>
<!-- Generator: Adobe Illustrator 18.1.1, SVG Export Plug-In . SVG Version: 6.00 Build 0)  -->
<svg version="1.1" id="Layer_1" xmlns="http://www.w3.org/2000/svg" xmlns:xlink="http://www.w3.org/1999/xlink" x="0px" y="0px"
	 viewBox="0 0 21.3 22.1" enable-background="new 0 0 21.3 22.1" xml:space="preserve">
<circle fill="#5091CD" cx="10.9" cy="11.2" r="10.9"/>
<g>
	<g id="_x37_74-sound-3_x40_2x.png_5_">
		<g>
			<path fill="#F3F7F8" d="M16.2,11.2L16.2,11.2c0-1.4-0.8-2.6-2-3.1l0,0c0,0-0.1,0-0.1,0c-0.1,0-0.2,0.1-0.2,0.2
				c0,0.1,0.1,0.2,0.1,0.2l0,0c1,0.4,1.8,1.5,1.8,2.7v0c0,1.2-0.7,2.2-1.8,2.7l0,0c-0.1,0-0.1,0.1-0.1,0.2c0,0.1,0.1,0.2,0.2,0.2
				c0,0,0.1,0,0.1,0l0,0C15.4,13.7,16.2,12.6,16.2,11.2z M15.4,6.5L15.4,6.5c0,0-0.1,0-0.1,0c-0.1,0-0.2,0.1-0.2,0.2
				c0,0.1,0.1,0.2,0.1,0.2c1.5,0.8,2.6,2.4,2.6,4.3v0c0,1.9-1,3.5-2.6,4.3c0,0-0.1,0.1-0.1,0.2c0,0.1,0.1,0.2,0.2,0.2
				c0,0,0.1,0,0.1,0l0,0c1.7-0.9,2.8-2.7,2.8-4.7v0C18.2,9.2,17.1,7.4,15.4,6.5z M14.3,11.2c0-0.8-0.7-1.5-1.5-1.5
				c-0.1,0-0.2,0.1-0.2,0.2c0,0.1,0.1,0.2,0.2,0.2c0.5,0,1,0.4,1,1v0c0,0.5-0.4,1-1,1c-0.1,0-0.2,0.1-0.2,0.2c0,0.1,0.1,0.2,0.2,0.2
				C13.6,12.6,14.3,12,14.3,11.2L14.3,11.2z M11.1,4.4c-0.2,0-0.3,0.1-0.5,0.2l0,0L6.7,7.8H5.5c-0.5,0-1,0.4-1,1v4.9
				c0,0.5,0.4,1,1,1h1.2l3.9,3.2l0,0c0.1,0.1,0.3,0.2,0.5,0.2c0.4,0,0.7-0.3,0.7-0.7V5.1C11.9,4.7,11.5,4.4,11.1,4.4z M6.5,14.1h-1
				c-0.3,0-0.5-0.2-0.5-0.5V8.7c0-0.3,0.2-0.5,0.5-0.5h1V14.1z M11.4,17.3c0,0.1-0.1,0.2-0.2,0.2c-0.1,0-0.1,0-0.2-0.1l0,0l0,0l0,0
				l-4-3.3v-6l4-3.3l0,0l0,0l0,0c0,0,0.1-0.1,0.2-0.1c0.1,0,0.2,0.1,0.2,0.2V17.3z"/>
		</g>
	</g>
</g>
</svg>
