<?xml version="1.0" encoding="utf-8"?>
<!-- Generator: Adobe Illustrator 18.1.1, SVG Export Plug-In . SVG Version: 6.00 Build 0)  -->
<svg version="1.1" id="Layer_1" xmlns="http://www.w3.org/2000/svg" xmlns:xlink="http://www.w3.org/1999/xlink" x="0px" y="0px"
	 viewBox="0 0 60 63.7" enable-background="new 0 0 60 63.7" xml:space="preserve">
<g id="Sun">
	<g>
		<path fill="#5091CD" d="M9.9,32.9c0-1.4-1.1-2.5-2.5-2.5H2.5c-1.4,0-2.5,1.1-2.5,2.5c0,1.4,1.1,2.5,2.5,2.5h4.9
			C8.8,35.4,9.9,34.3,9.9,32.9z M12.3,46.9c-0.7,0-1.3,0.3-1.7,0.7l-3.3,3.3c-0.4,0.4-0.7,1.1-0.7,1.7c0,1.4,1.1,2.5,2.5,2.5
			c0.7,0,1.3-0.3,1.7-0.7l3.3-3.3c0.4-0.4,0.7-1.1,0.7-1.7C14.8,48,13.7,46.9,12.3,46.9z M28.8,14c1.4,0,2.5-1.1,2.5-2.5V6.6
			c0-1.4-1.1-2.5-2.5-2.5c-1.4,0-2.5,1.1-2.5,2.5v4.9C26.3,12.9,27.4,14,28.8,14z M45.2,18.9c0.7,0,1.3-0.3,1.7-0.7l3.3-3.3
			c0.4-0.4,0.7-1.1,0.7-1.7c0-1.4-1.1-2.5-2.5-2.5c-0.7,0-1.3,0.3-1.7,0.7l-3.3,3.3c-0.4,0.4-0.7,1.1-0.7,1.7
			C42.8,17.8,43.9,18.9,45.2,18.9z M10.6,18.2c0.4,0.4,1.1,0.7,1.7,0.7c1.4,0,2.5-1.1,2.5-2.5c0-0.7-0.3-1.3-0.7-1.7l-3.3-3.3
			C10.3,11,9.7,10.7,9,10.7c-1.4,0-2.5,1.1-2.5,2.5c0,0.7,0.3,1.3,0.7,1.7L10.6,18.2z M55.1,30.4h-4.9c-1.4,0-2.5,1.1-2.5,2.5
			c0,1.4,1.1,2.5,2.5,2.5h4.9c1.4,0,2.5-1.1,2.5-2.5C57.5,31.5,56.4,30.4,55.1,30.4z M47,47.6c-0.4-0.4-1.1-0.7-1.7-0.7
			c-1.4,0-2.5,1.1-2.5,2.5c0,0.7,0.3,1.3,0.7,1.7l3.3,3.3c0.4,0.4,1.1,0.7,1.7,0.7c1.4,0,2.5-1.1,2.5-2.5c0-0.7-0.3-1.3-0.7-1.7
			L47,47.6z M28.8,51.8c-1.4,0-2.5,1.1-2.5,2.5v4.9c0,1.4,1.1,2.5,2.5,2.5c1.4,0,2.5-1.1,2.5-2.5v-4.9
			C31.2,52.9,30.1,51.8,28.8,51.8z M28.8,15.6c-9.5,0-17.3,7.7-17.3,17.3s7.7,17.3,17.3,17.3S46,42.4,46,32.9S38.3,15.6,28.8,15.6z
			 M28.8,45.2c-6.8,0-12.3-5.5-12.3-12.3S22,20.6,28.8,20.6s12.3,5.5,12.3,12.3S35.6,45.2,28.8,45.2z"/>
	</g>
</g>
</svg>
