<?xml version="1.0" encoding="utf-8"?>
<!-- Generator: Adobe Illustrator 18.1.1, SVG Export Plug-In . SVG Version: 6.00 Build 0)  -->
<svg version="1.1" id="Layer_1" xmlns="http://www.w3.org/2000/svg" xmlns:xlink="http://www.w3.org/1999/xlink" x="0px" y="0px"
	 viewBox="0 0 67.1 69.2" enable-background="new 0 0 67.1 69.2" xml:space="preserve">
<path fill="#83BBE5" d="M24.5,52.4c-1.3,0-2.3,1-2.3,2.3v3.1c0,1.3,1,2.3,2.3,2.3s2.3-1,2.3-2.3v-3.1C26.9,53.4,25.8,52.4,24.5,52.4
	z"/>
<path fill="#83BBE5" d="M24.5,43c-1.3,0-2.3,1-2.3,2.3v3.1c0,1.3,1,2.3,2.3,2.3s2.3-1,2.3-2.3v-3.1C26.9,44,25.8,43,24.5,43z"/>
<path fill="#83BBE5" d="M32.3,55.5c-1.3,0-2.3,1-2.3,2.3v3.1c0,1.3,1,2.3,2.3,2.3c1.3,0,2.3-1,2.3-2.3v-3.1
	C34.7,56.5,33.6,55.5,32.3,55.5z"/>
<path fill="#83BBE5" d="M40.1,43c-1.3,0-2.3,1-2.3,2.3v3.1c0,1.3,1,2.3,2.3,2.3c1.3,0,2.3-1,2.3-2.3v-3.1C42.5,44,41.4,43,40.1,43z"
	/>
<path fill="#83BBE5" d="M32.3,46.1c-1.3,0-2.3,1-2.3,2.3v3.1c0,1.3,1,2.3,2.3,2.3c1.3,0,2.3-1,2.3-2.3v-3.1
	C34.7,47.2,33.6,46.1,32.3,46.1z"/>
<path fill="#83BBE5" d="M40.1,52.4c-1.3,0-2.3,1-2.3,2.3v3.1c0,1.3,1,2.3,2.3,2.3c1.3,0,2.3-1,2.3-2.3v-3.1
	C42.5,53.4,41.4,52.4,40.1,52.4z"/>
<path fill="#83BBE5" d="M54,31.9c1.3-9.1-7.7-12.6-12.5-12.7c-1.1-1.4-2.1-2.8-3.6-3.8c-1.1-0.7-4.2-3.1-9.8-3.1
	c-9.3,0-16.8,7.2-17.4,16.4c-4,2.1-6.7,6.2-6.7,11c0,6.9,5.6,12.5,12.5,12.5c1.4,0,2.5-1.1,2.5-2.5c0-1.4-1.1-2.5-2.5-2.5
	c-4.1,0-7.5-3.4-7.5-7.5c0-2.8,1.5-5.3,4-6.6l2.5-1.3l0.2-2.8c0.4-6.6,5.9-11.7,12.4-11.7c3.8,0,7.4,1.7,9.8,4.8l1.4,1.8l2.4,0.1
	c4.1,0.1,7.3,3.4,7.3,7.5v3.3l3,1.3c2.2,0.9,3.5,3,3.5,5.4c0,3.2-2.6,5.8-5.8,5.8c-1.4,0-2.5,1.1-2.5,2.5c0,1.4,1.1,2.5,2.5,2.5
	c6,0,10.8-4.8,10.8-10.8C60.6,37.2,57.6,33.7,54,31.9z"/>
</svg>
