<?xml version="1.0" encoding="UTF-8" standalone="no"?>
<svg width="24px" height="32px" viewBox="0 0 24 32" version="1.1" xmlns="http://www.w3.org/2000/svg" xmlns:xlink="http://www.w3.org/1999/xlink" xmlns:sketch="http://www.bohemiancoding.com/sketch/ns">
    <!-- Generator: Sketch 3.3.1 (12005) - http://www.bohemiancoding.com/sketch -->
    <title>Slice 1</title>
    <desc>Created with Sketch.</desc>
    <defs></defs>
    <g id="Page-1" stroke="none" stroke-width="1" fill="none" fill-rule="evenodd" sketch:type="MSPage">
        <g id="notes-hover" sketch:type="MSLayerGroup" fill="#83BBE5">
            <g id="Group" sketch:type="MSShapeGroup">
                <path d="M0,9 L0,29.7 C0,30.8 1,32 2.1,32 L22,32 C23.1,32 24,30.8 24,29.7 L24,9 L0,9 Z M2.7,12.3 L21.5,12.3 L21.5,13.8 L2.7,13.8 L2.7,12.3 Z M2.7,16.2 L21.5,16.2 L21.5,17.7 L2.7,17.7 L2.7,16.2 Z M2.7,20.1 L21.5,20.1 L21.5,21.6 L2.7,21.6 L2.7,20.1 Z M2.7,24 L14.3,24 L14.3,25.5 L2.7,25.5 L2.7,24 Z M24,7 L24,1.8 C24,0.7 23.1,0 22,0 L2.1,0 C1,0 0,0.7 0,1.8 L0,7 L24,7 Z" id="Shape"></path>
            </g>
        </g>
    </g>
</svg>
