<?xml version="1.0" encoding="utf-8"?>
<!-- Generator: Adobe Illustrator 18.1.1, SVG Export Plug-In . SVG Version: 6.00 Build 0)  -->
<svg version="1.1" id="Layer_1" xmlns="http://www.w3.org/2000/svg" xmlns:xlink="http://www.w3.org/1999/xlink" x="0px" y="0px"
	 viewBox="0 0 70.6 69.2" enable-background="new 0 0 70.6 69.2" xml:space="preserve">
<g id="Sun_1_" opacity="0.96">
	<g>
		<path fill="#83BBE5" d="M15.7,34.4c0-1.4-1.1-2.5-2.5-2.5H8.3c-1.4,0-2.5,1.1-2.5,2.5s1.1,2.5,2.5,2.5h4.9
			C14.6,36.9,15.7,35.8,15.7,34.4z M18.2,48.4c-0.7,0-1.3,0.3-1.7,0.7l-3.3,3.3c-0.4,0.4-0.7,1.1-0.7,1.7c0,1.4,1.1,2.5,2.5,2.5
			c0.7,0,1.3-0.3,1.7-0.7l3.3-3.3c0.4-0.4,0.7-1.1,0.7-1.7C20.7,49.5,19.6,48.4,18.2,48.4z M34.6,15.5c1.4,0,2.5-1.1,2.5-2.5V8.1
			c0-1.4-1.1-2.5-2.5-2.5s-2.5,1.1-2.5,2.5V13C32.2,14.4,33.3,15.5,34.6,15.5z M51.1,20.4c0.7,0,1.3-0.3,1.7-0.7l3.3-3.3
			c0.4-0.4,0.7-1.1,0.7-1.7c0-1.4-1.1-2.5-2.5-2.5c-0.7,0-1.3,0.3-1.7,0.7l-3.3,3.3c-0.4,0.4-0.7,1.1-0.7,1.7
			C48.6,19.3,49.7,20.4,51.1,20.4z M16.5,19.7c0.4,0.4,1.1,0.7,1.7,0.7c1.4,0,2.5-1.1,2.5-2.5c0-0.7-0.3-1.3-0.7-1.7l-3.3-3.3
			c-0.4-0.4-1.1-0.7-1.7-0.7c-1.4,0-2.5,1.1-2.5,2.5c0,0.7,0.3,1.3,0.7,1.7L16.5,19.7z M61,31.9H56c-1.4,0-2.5,1.1-2.5,2.5
			s1.1,2.5,2.5,2.5H61c1.4,0,2.5-1.1,2.5-2.5S62.3,31.9,61,31.9z M52.8,49.1c-0.4-0.4-1.1-0.7-1.7-0.7c-1.4,0-2.5,1.1-2.5,2.5
			c0,0.7,0.3,1.3,0.7,1.7l3.3,3.3c0.4,0.4,1.1,0.7,1.7,0.7c1.4,0,2.5-1.1,2.5-2.5c0-0.7-0.3-1.3-0.7-1.7L52.8,49.1z M34.6,53.3
			c-1.4,0-2.5,1.1-2.5,2.5v4.9c0,1.4,1.1,2.5,2.5,2.5s2.5-1.1,2.5-2.5v-4.9C37.1,54.4,36,53.3,34.6,53.3z M34.6,17.1
			c-9.5,0-17.3,7.7-17.3,17.3s7.7,17.3,17.3,17.3s17.3-7.7,17.3-17.3S44.2,17.1,34.6,17.1z M34.6,46.7c-6.8,0-12.3-5.5-12.3-12.3
			s5.5-12.3,12.3-12.3S47,27.6,47,34.4S41.4,46.7,34.6,46.7z"/>
	</g>
</g>
</svg>
