<?xml version="1.0" encoding="utf-8"?>
<!-- Generator: Adobe Illustrator 18.1.1, SVG Export Plug-In . SVG Version: 6.00 Build 0)  -->
<svg version="1.1" xmlns="http://www.w3.org/2000/svg" xmlns:xlink="http://www.w3.org/1999/xlink" x="0px" y="0px"
	 viewBox="0 0 20.1 13.9" enable-background="new 0 0 20.1 13.9" xml:space="preserve">
<g id="Layer_2_copy">
</g>
<g id="Layer_2">
</g>
<g id="Layer_1">
</g>
<g id="Layer_6">
</g>
<g id="Used_Elements">
	<g id="Not_Used">
	</g>
	<g>
		<path fill="none" stroke="#9698A9" stroke-width="0.75" stroke-miterlimit="10" d="M18.7,13.5H1.4c-0.6,0-1-0.4-1-1V1.4
			c0-0.6,0.4-1,1-1h17.4c0.6,0,1,0.4,1,1v11.1C19.7,13.1,19.3,13.5,18.7,13.5z"/>
		<g>
			<polygon fill="#9698A9" points="7.7,9.3 8.5,4.6 9.8,4.6 9,9.3 			"/>
			<path fill="#9698A9" d="M13.6,4.7c-0.3-0.1-0.6-0.2-1.1-0.2c-1.3,0-2.1,0.6-2.2,1.5c0,0.7,0.6,1,1.1,1.3c0.5,0.2,0.7,0.4,0.7,0.6
				c0,0.3-0.4,0.5-0.8,0.5c-0.5,0-0.8-0.1-1.2-0.2L10,8.1l-0.2,1c0.3,0.1,0.8,0.2,1.4,0.2c1.3,0,2.2-0.6,2.2-1.6
				c0-0.5-0.3-0.9-1.1-1.3c-0.4-0.2-0.7-0.4-0.7-0.6c0-0.2,0.2-0.4,0.7-0.4c0.4,0,0.7,0.1,1,0.2l0.1,0.1L13.6,4.7"/>
			<path fill="#9698A9" d="M16.9,4.6h-1c-0.3,0-0.5,0.1-0.7,0.4l-1.9,4.3h1.3c0,0,0.2-0.6,0.3-0.7c0.1,0,1.4,0,1.6,0
				c0,0.2,0.2,0.7,0.2,0.7h1.2L16.9,4.6 M15.3,7.6c0.1-0.3,0.5-1.3,0.5-1.3c0,0,0.1-0.3,0.2-0.4l0.1,0.4c0,0,0.2,1.1,0.3,1.3H15.3z"
				/>
			<path fill="#9698A9" d="M6.7,4.6L5.4,7.8L5.3,7.2c-0.2-0.7-1-1.6-1.8-2l1.1,4.1l1.3,0l2-4.7H6.7"/>
			<path fill="#9698A9" d="M4.3,4.6H2.2l0,0.1C3.8,5.1,4.9,6,5.3,7.2L4.8,5C4.8,4.7,4.5,4.6,4.3,4.6"/>
		</g>
	</g>
</g>
<g id="Layer_7">
</g>
</svg>
