<?xml version="1.0" encoding="utf-8"?>
<!-- Generator: Adobe Illustrator 18.1.1, SVG Export Plug-In . SVG Version: 6.00 Build 0)  -->
<svg version="1.1" id="Layer_1" xmlns="http://www.w3.org/2000/svg" xmlns:xlink="http://www.w3.org/1999/xlink" x="0px" y="0px"
	 viewBox="0 0 27 27" enable-background="new 0 0 27 27" xml:space="preserve">
<g>
	<path fill="#CBCBCB" d="M5.3,11.8c0.8-4.3,4.5-7.5,9-7.5c5.1,0,9.2,4.1,9.2,9.2s-4.1,9.2-9.2,9.2c-3.6,0-6.6-2-8.2-5h1.9
		c1.3,2,3.6,3.3,6.2,3.3c4.1,0,7.5-3.4,7.5-7.5S18.5,6,14.3,6C10.8,6,7.8,8.5,7,11.8H5.3L5.3,11.8z"/>
	<polygon fill="#CBCBCB" points="13.9,13.8 18.3,16.4 18.7,15.6 14.7,13.3 14.7,7.7 13.9,7.7 	"/>
	<polygon fill="#CBCBCB" points="6,15.2 8.5,11.8 3.5,11.8 	"/>
</g>
</svg>
