<?xml version="1.0" encoding="utf-8"?>
<!-- Generator: Adobe Illustrator 13.0.0, SVG Export Plug-In . SVG Version: 6.00 Build 14948)  -->
<!DOCTYPE svg PUBLIC "-//W3C//DTD SVG 1.1//EN" "http://www.w3.org/Graphics/SVG/1.1/DTD/svg11.dtd">
<svg version="1.1" id="Layer_1" xmlns="http://www.w3.org/2000/svg" xmlns:xlink="http://www.w3.org/1999/xlink" x="0px" y="0px"
	 width="455px" height="457px" viewBox="77.5 167.5 455 457" enable-background="new 77.5 167.5 455 457" xml:space="preserve">
<g>
	<path fill="#CBCBCB" d="M306,169.333c-124.667,0-226.667,102-226.667,226.667c0,124.667,102,226.667,226.667,226.667
		c124.667,0,226.667-102,226.667-226.667C532.667,271.333,430.667,169.333,306,169.333z M306,588.667
		c-106.533,0-192.667-86.134-192.667-192.667S199.467,203.333,306,203.333S498.667,289.467,498.667,396S412.533,588.667,306,588.667
		z"/>
	<path fill="#CBCBCB" d="M392.133,432.267c0-11.333-2.267-22.667-9.066-31.733s-13.6-15.867-24.934-20.4
		c-9.066-4.533-27.199-9.066-52.133-13.6c-15.867-4.533-20.4-6.8-22.667-9.066c-4.534-2.267-4.534-6.8-4.534-13.6
		s4.534-18.133,27.2-18.133c11.333,0,22.667,2.267,29.467,9.066c2.267,2.267,4.533,4.534,6.8,6.8l0,0l0,0
		c0,2.267,2.267,2.267,4.533,2.267h36.267c2.267,0,4.533-2.267,4.533-4.533c0,0,0-2.267-2.267-4.534
		c-9.066-24.933-29.467-40.8-58.933-45.333v-18.133c0-4.534-2.268-6.8-6.801-6.8h-29.466c-4.533,0-6.8,2.267-6.8,6.8V294
		c-18.133,4.533-31.733,11.333-40.8,20.4c-9.066,11.333-15.867,24.934-15.867,40.8c0,13.6,4.534,24.933,13.6,36.267
		c9.067,11.333,31.733,20.4,68,27.199c11.333,2.268,18.134,4.534,22.667,6.801C335.467,430,340,434.533,340,441.333
		c0,9.067-4.533,18.134-29.467,18.134c-9.066,0-15.867-2.267-22.667-4.533c-9.067-4.533-15.867-9.067-20.4-18.134l0,0l0,0
		c0-2.267-2.267-2.267-4.534-2.267H224.4c-2.267,0-4.533,2.267-4.533,4.533v2.267C228.933,473.066,251.6,491.2,285.6,498v22.667
		c0,4.533,2.267,6.8,6.8,6.8h29.466c4.534,0,6.801-2.267,6.801-6.8V498c20.399-2.267,34-9.066,47.6-20.4
		C387.6,466.267,392.133,450.4,392.133,432.267z"/>
</g>
</svg>
