<?xml version="1.0" encoding="utf-8"?>
<!-- Generator: Adobe Illustrator 18.0.0, SVG Export Plug-In . SVG Version: 6.00 Build 0)  -->
<!DOCTYPE svg PUBLIC "-//W3C//DTD SVG 1.1//EN" "http://www.w3.org/Graphics/SVG/1.1/DTD/svg11.dtd">
<svg version="1.1" id="Layer_1" xmlns="http://www.w3.org/2000/svg" xmlns:xlink="http://www.w3.org/1999/xlink" x="0px" y="0px"
	 viewBox="0 0 28 28" enable-background="new 0 0 28 28" xml:space="preserve">
<g transform="translate(480 96)">
	<path fill="#B3B3B3" d="M-472.2-89.5v-1.2c0-0.7,0.6-1.2,1.2-1.2s1.2,0.6,1.2,1.2v1.2c0,0.7-0.6,1.2-1.2,1.2
		S-472.2-88.8-472.2-89.5z M-463.5-88.2c0.7,0,1.2-0.6,1.2-1.2v-1.2c0-0.7-0.6-1.2-1.2-1.2c-0.7,0-1.2,0.6-1.2,1.2v1.2
		C-464.8-88.8-464.2-88.2-463.5-88.2z M-458.5-74.5h-17.4v-14.9h3.1c0,1,0.8,1.9,1.9,1.9s1.9-0.8,1.9-1.9h3.7c0,1,0.8,1.9,1.9,1.9
		s1.9-0.8,1.9-1.9h3.1V-74.5L-458.5-74.5z M-459.8-85.7h-14.9v9.9h14.9V-85.7L-459.8-85.7z M-457.3-88.2v14.9h-17.4v1.2h18.6v-16.1
		H-457.3z M-469.7-84.5h-2.5v2.5h2.5V-84.5z M-466-84.5h-2.5v2.5h2.5V-84.5z M-462.3-84.5h-2.5v2.5h2.5V-84.5z M-469.7-80.8h-2.5
		v2.5h2.5V-80.8z M-466-80.8h-2.5v2.5h2.5V-80.8z M-462.3-80.8h-2.5v2.5h2.5V-80.8z"/>
</g>
</svg>
