<?xml version="1.0" encoding="utf-8"?>
<!-- Generator: Adobe Illustrator 13.0.0, SVG Export Plug-In . SVG Version: 6.00 Build 14948)  -->
<!DOCTYPE svg PUBLIC "-//W3C//DTD SVG 1.1//EN" "http://www.w3.org/Graphics/SVG/1.1/DTD/svg11.dtd">
<svg version="1.1" id="Layer_1" xmlns="http://www.w3.org/2000/svg" xmlns:xlink="http://www.w3.org/1999/xlink" x="0px" y="0px"
	 width="554.88px" height="489.6px" viewBox="28.56 151.2 554.88 489.6" enable-background="new 28.56 151.2 554.88 489.6"
	 xml:space="preserve">
<g>
	<path fill="#69767F" d="M306,640.8c-4.08,0-10.2-2.04-14.28-4.08c-2.04-2.04-6.12-4.08-8.16-8.16l-59.16-87.72H87.72
		c-32.64,0-59.16-26.52-59.16-59.16V210.36c0-32.64,26.52-59.16,59.16-59.16h436.56c32.64,0,59.16,26.52,59.16,59.16v269.28
		c0,32.641-26.521,59.16-59.16,59.16H387.6l-59.159,89.76c-4.08,6.12-10.2,10.2-16.32,10.2C310.08,640.8,308.04,640.8,306,640.8z
		 M87.72,169.56c-22.44,0-40.8,18.36-40.8,40.8v269.28c0,22.44,18.36,40.801,40.8,40.801h142.8c4.08,0,6.12,2.04,8.16,4.08
		l61.2,93.84c0,2.04,2.04,2.04,2.04,2.04c2.04,2.04,4.08,2.04,6.12,2.04s4.08-2.04,4.08-4.08l63.24-93.84
		c2.04-2.04,4.08-4.08,8.159-4.08H526.32c22.439,0,40.8-18.36,40.8-40.801V210.36c0-22.44-18.36-40.8-40.8-40.8H87.72z
		 M501.84,404.16H106.08c-4.08,0-10.2-4.08-10.2-10.2s4.08-10.2,10.2-10.2h395.76c4.08,0,10.2,4.08,10.2,10.2
		S505.92,404.16,501.84,404.16z M501.84,330.72H106.08c-4.08,0-10.2-4.08-10.2-10.2s4.08-10.2,10.2-10.2h395.76
		c4.08,0,10.2,4.08,10.2,10.2S505.92,330.72,501.84,330.72z M501.84,257.28H106.08c-6.12,0-10.2-4.08-10.2-10.2s4.08-10.2,10.2-10.2
		h395.76c4.08,0,10.2,4.08,10.2,10.2S505.92,257.28,501.84,257.28z"/>
</g>
</svg>
