<?xml version="1.0" encoding="utf-8"?>
<!-- Generator: Adobe Illustrator 13.0.0, SVG Export Plug-In . SVG Version: 6.00 Build 14948)  -->
<!DOCTYPE svg PUBLIC "-//W3C//DTD SVG 1.1//EN" "http://www.w3.org/Graphics/SVG/1.1/DTD/svg11.dtd">
<svg version="1.1" id="Layer_1" xmlns="http://www.w3.org/2000/svg" xmlns:xlink="http://www.w3.org/1999/xlink" x="0px" y="0px"
	 width="321.867px" height="528.134px" viewBox="145.067 133.066 321.867 528.134"
	 enable-background="new 145.067 133.066 321.867 528.134" xml:space="preserve">
<g>
	<path fill="#CBCBCB" d="M466.934,133.066H435.2l-13.601,13.6l-13.6-13.6h-31.733l-13.6,13.6l-13.601-13.6h-31.733l-13.6,13.6
		l-9.067-13.6h-31.733l-13.6,13.6l-13.6-13.6h-29.467l-11.333,13.6l-13.6-13.6h-36.267V362v88.4v210.8h34l13.6-13.601l13.6,13.601
		h29.467l13.6-13.601l13.6,13.601H292.4L306,647.6l13.6,13.601h29.467l13.601-13.601l13.6,13.601H408l13.6-13.601L435.2,661.2
		h31.733V133.066L466.934,133.066z M453.333,645.333H442l-20.4-20.399L401.2,645.333h-15.867l-20.399-20.399l-20.4,20.399H326.4
		L306,624.934l-20.4,20.399h-18.133l-20.4-20.399l-20.4,20.399h-13.6l-20.4-20.399l-20.4,20.399h-13.6V457.2v-86.133v-224.4h15.867
		l18.133,18.133l18.133-18.133h20.4l18.133,18.133l18.133-18.133h20.4L306,164.8l18.134-18.133h20.399l18.134,18.133l18.133-18.133
		h20.4l18.133,18.133l18.134-18.133h15.866V645.333L453.333,645.333z"/>
	<path fill="#CBCBCB" d="M281.066,382.4c-2.267-4.533-4.533-11.333-4.533-22.667h-36.267c0,24.933,6.8,40.8,22.667,52.134
		c9.067,4.533,20.4,9.066,38.534,11.333v24.934h13.6v-27.2c13.601,0,24.934-4.533,34-11.334C364.934,400.533,374,384.667,374,362
		c0-15.867-6.8-29.467-18.134-38.533c-6.8-4.533-20.399-11.333-40.8-18.133v-47.6c9.066,0,13.601,4.533,18.134,9.066
		c2.267,4.534,2.267,9.067,4.533,15.867h34c0-20.4-9.066-36.267-22.667-45.333c-9.066-6.8-18.133-9.067-34-11.333v-15.867h-13.6
		v18.133c-9.067,0-15.867,2.267-20.4,2.267c-6.8,2.267-13.6,6.8-20.4,13.6c-4.533,4.533-9.066,11.333-11.333,18.133
		c-2.267,6.8-4.534,13.6-4.534,22.667c0,11.333,4.534,22.667,11.333,31.733c6.8,9.067,18.133,15.867,36.267,20.4l11.333,2.267V396
		C292.4,393.733,285.6,389.2,281.066,382.4z M315.066,343.867c6.8,2.267,11.334,4.533,15.867,6.8c4.533,4.534,6.8,11.333,6.8,18.133
		c0,9.067-2.267,15.867-9.066,20.4c-2.267,2.267-9.067,4.533-15.867,4.533v-49.867H315.066z M287.867,296.267
		c-4.533-4.533-9.067-9.066-9.067-18.133c0-6.8,2.267-11.333,4.534-15.867c4.533-4.533,9.066-6.8,15.867-6.8V300.8
		C294.667,300.8,290.133,298.533,287.867,296.267z"/>
	<rect x="210.8" y="538.8" fill="#CBCBCB" width="190.4" height="18.134"/>
	<path fill="#CBCBCB" d="M408,493.467c-13.6,6.8-24.934,15.866-40.8,18.133c0-4.533-2.267-9.066-2.267-13.6
		c0-2.267-2.267-4.533-6.8-4.533c-15.867,4.533-31.733,15.866-47.601,22.666c-2.267-6.8-2.267-11.333-4.533-18.133
		c0-2.267-4.533-4.533-6.8-2.267c-15.867,6.8-29.467,13.6-45.333,20.399c-4.533,2.268,0,9.067,4.533,6.801
		c13.6-6.801,27.2-11.334,38.533-18.134c2.267,6.8,2.267,11.333,4.534,18.134c0,2.267,2.267,4.533,4.533,2.267
		c15.866-4.533,31.733-15.867,47.6-22.667c0,4.533,2.267,9.066,2.267,15.867c0,2.267,2.268,4.533,4.534,2.267
		c18.133-2.267,31.733-11.334,47.6-20.4C417.066,498,412.533,488.934,408,493.467z"/>
</g>
</svg>
