<?xml version="1.0" encoding="utf-8"?>
<!-- Generator: Adobe Illustrator 18.0.0, SVG Export Plug-In . SVG Version: 6.00 Build 0)  -->
<!DOCTYPE svg PUBLIC "-//W3C//DTD SVG 1.1//EN" "http://www.w3.org/Graphics/SVG/1.1/DTD/svg11.dtd">
<svg version="1.1" id="Layer_1" xmlns="http://www.w3.org/2000/svg" xmlns:xlink="http://www.w3.org/1999/xlink" x="0px" y="0px"
	 viewBox="0 0 14 14" enable-background="new 0 0 14 14" xml:space="preserve">
<path fill="#C0272D" d="M12.8,3.2L9,7l3.8,3.8c0.6,0.6,0.6,1.5,0,2c-0.3,0.3-0.6,0.4-1,0.4c-0.4,0-0.7-0.1-1-0.4L7,9l-3.8,3.8
	c-0.3,0.3-0.6,0.4-1,0.4c-0.4,0-0.7-0.1-1-0.4c-0.6-0.6-0.6-1.5,0-2L5,7L1.2,3.2c-0.6-0.6-0.6-1.5,0-2c0.6-0.6,1.5-0.6,2,0L7,5
	l3.8-3.8c0.6-0.6,1.5-0.6,2,0C13.3,1.8,13.3,2.7,12.8,3.2z"/>
</svg>
