<?xml version="1.0" encoding="utf-8"?>
<!-- Generator: Adobe Illustrator 18.0.0, SVG Export Plug-In . SVG Version: 6.00 Build 0)  -->
<!DOCTYPE svg PUBLIC "-//W3C//DTD SVG 1.1//EN" "http://www.w3.org/Graphics/SVG/1.1/DTD/svg11.dtd">
<svg version="1.1" id="Layer_1" xmlns="http://www.w3.org/2000/svg" xmlns:xlink="http://www.w3.org/1999/xlink" x="0px" y="0px"
	 width="491.1px" height="491.903px" viewBox="0 0 491.1 491.9" enable-background="new 0 0 491.1 491.9" xml:space="preserve">
<g>
	<path fill="#69767F" d="M459.8,491.9H31.4C14.6,491.9,0,477.3,0,460.6v-30.8l0.1-0.2c19-39.1,43.1-62.1,59.9-74.5
		c18.3-13.4,32.2-17.7,32.4-17.7l0.2,0h32.6c34.5,0,60.5-26,60.5-60.5v-20.1c-13.2-15.5-22.8-32-28.5-49c-0.6-1.2-1-2.5-1.5-3.6
		c-1-2.7-1.7-4.9-4.3-6.2l-0.2-0.1c-14.8-12.7-16.5-33.7-10.4-47.8l0.1-0.1l0.1-0.1c2-2,3.9-3.9,3.9-7.6V87.2
		c0-19.7,4.7-35.8,14.4-49.4c10-16,28.2-28.7,47.4-32.9C218.5,1.7,231.1,0,243.9,0c9.7,0,20,1,30.4,2.9c19,4.2,35.4,12.8,47.3,24.7
		c18.7,18.7,22.7,43.9,22.7,61.7v53c0,1.7,2,3.7,3.9,5.6l0.1,0.2c8.4,14.8,5.9,33.6-6.2,45.7c-1,1.9-2.3,2.9-3.5,3.8
		c-1.4,1.1-2.5,1.9-2.5,3.9l0,0.2c-7.1,23.6-15.9,40.6-28.5,55.1V277c0,34.5,26,60.5,60.5,60.5l30.8,0c0.1,0,14.1,3.8,32.4,16.9
		c16.8,12.2,40.9,35.1,59.9,75.3l0.1,0.2v30.8C491.1,477.3,476.5,491.9,459.8,491.9z M1.5,430.1v30.4c0,15.9,13.9,29.8,29.9,29.8
		h428.4c15.9,0,29.8-13.9,29.8-29.8v-30.4c-35.4-74.7-88.6-90.5-91.2-91.2H368c-17,0-32.6-6.3-44.1-17.8
		C312.3,309.6,306,293.9,306,277v-20.7l0.2-0.2c12.6-14.4,21.3-31.2,28.4-54.7c0-2.6,1.6-3.8,3.1-4.9c1.1-0.9,2.3-1.8,3.1-3.4
		l0.1-0.2c11.6-11.6,14.1-29.7,6-43.9c-2.1-2.1-4.2-4.3-4.2-6.6v-53c0-17.5-3.9-42.3-22.2-60.7c-11.7-11.7-27.8-20.1-46.6-24.3
		c-10.3-1.9-20.4-2.8-30.1-2.8c-12.6,0-25,1.6-36.9,4.9c-18.8,4.2-36.6,16.6-46.5,32.3C151,52,146.3,67.9,146.3,87.2v55.1
		c0,4.3-2.1,6.5-4.2,8.6c-5.8,13.6-4.2,33.7,10,45.9c3.1,1.6,4,4.2,5,7c0.4,1.1,0.8,2.3,1.4,3.5l0,0.1c5.6,16.9,15.2,33.3,28.4,48.7
		l0.2,0.2V277c0,17-6.3,32.6-17.8,44.1c-11.5,11.5-27.2,17.8-44.1,17.8H92.7C90,339.7,36.9,357.5,1.5,430.1z"/>
</g>
</svg>
