<?xml version="1.0" encoding="utf-8"?>
<!-- Generator: Adobe Illustrator 13.0.0, SVG Export Plug-In . SVG Version: 6.00 Build 14948)  -->
<!DOCTYPE svg PUBLIC "-//W3C//DTD SVG 1.1//EN" "http://www.w3.org/Graphics/SVG/1.1/DTD/svg11.dtd">
<svg version="1.1" id="Layer_1" xmlns="http://www.w3.org/2000/svg" xmlns:xlink="http://www.w3.org/1999/xlink" x="0px" y="0px"
	 width="511.35px" height="489.6px" viewBox="51.69 151.2 511.35 489.6" enable-background="new 51.69 151.2 511.35 489.6"
	 xml:space="preserve">
<g id="_x32__x5F_5_1_">
	<g>
		<path fill="#69767F" d="M499.8,153.24l-112.2-2.04c-4.08,0-8.159,0-12.239,0c-30.601,0-69.36,14.28-89.76,32.64L71.4,375.6
			c-24.48,22.44-26.52,59.16-4.08,83.64L212.16,620.4c12.24,12.239,28.56,20.399,44.88,20.399c14.28,0,28.56-4.08,38.76-14.28
			L510,434.76c24.48-22.439,42.84-67.32,42.84-99.96l10.2-114.24C561,187.92,532.44,157.32,499.8,153.24z M516.12,334.8
			c0,22.44-14.28,57.12-30.601,71.4L269.28,600c-4.08,4.08-10.2,6.12-16.32,6.12c-4.08,0-12.24-2.04-18.36-8.16L91.8,436.8
			c-8.16-10.2-8.16-24.479,2.04-32.64l214.2-191.76c14.28-12.24,44.88-24.48,67.32-24.48c2.04,0,6.12,0,8.159,0l112.2,2.04
			C510,192,524.28,208.32,524.28,222.6L516.12,334.8z M416.16,226.68c-34.68,0-63.24,28.56-63.24,63.24
			c0,34.68,28.561,63.24,63.24,63.24s63.24-28.56,63.24-63.24C479.4,253.2,450.84,226.68,416.16,226.68z M416.16,316.44
			c-14.28,0-26.521-12.24-26.521-26.52c0-14.28,12.24-26.52,26.521-26.52s26.52,12.24,26.52,26.52
			C442.68,304.2,430.44,316.44,416.16,316.44z"/>
	</g>
</g>
</svg>
