<?xml version="1.0" encoding="utf-8"?>
<!-- Generator: Adobe Illustrator 18.0.0, SVG Export Plug-In . SVG Version: 6.00 Build 0)  -->
<!DOCTYPE svg PUBLIC "-//W3C//DTD SVG 1.1//EN" "http://www.w3.org/Graphics/SVG/1.1/DTD/svg11.dtd">
<svg version="1.1" id="Layer_1" xmlns="http://www.w3.org/2000/svg" xmlns:xlink="http://www.w3.org/1999/xlink" x="0px" y="0px"
	 viewBox="0 0 18 16" enable-background="new 0 0 18 16" xml:space="preserve">
<path fill="#5BC1AE" d="M12.3,4.9V3.2H2.8v9.6h9.6V8.9l2.1-2.2v7.1c0,0.3-0.1,0.5-0.3,0.7c-0.2,0.2-0.5,0.3-0.7,0.3H1.7
	c-0.6,0-1.1-0.5-1.1-1.1V2.2c0-0.6,0.5-1.1,1.1-1.1h11.7c0.6,0,1.1,0.5,1.1,1.1v0.6l1.1-1.1c0.4-0.4,1.1-0.4,1.5,0
	c0.4,0.4,0.4,1.1,0,1.5l-8.4,8.5C8.5,11.9,8.2,12,7.9,12c0,0,0,0,0,0c-0.3,0-0.5-0.1-0.7-0.3L3.7,8.2c-0.4-0.4-0.4-1.1,0-1.5
	c0.4-0.4,1.1-0.4,1.5,0l2.7,2.7L12.3,4.9z"/>
</svg>
