<?xml version="1.0" encoding="utf-8"?>
<!-- Generator: Adobe Illustrator 13.0.0, SVG Export Plug-In . SVG Version: 6.00 Build 14948)  -->
<!DOCTYPE svg PUBLIC "-//W3C//DTD SVG 1.1//EN" "http://www.w3.org/Graphics/SVG/1.1/DTD/svg11.dtd">
<svg version="1.1" id="Layer_1" xmlns="http://www.w3.org/2000/svg" xmlns:xlink="http://www.w3.org/1999/xlink" x="0px" y="0px"
	 width="542.935px" height="507.442px" viewBox="56.596 194.078 542.935 507.442"
	 enable-background="new 56.596 194.078 542.935 507.442" xml:space="preserve">
<g>
	<circle fill="#5091CD" cx="264.752" cy="488.567" r="23.981"/>
	<circle fill="#5091CD" cx="264.752" cy="561.47" r="23.981"/>
	<circle fill="#5091CD" cx="264.752" cy="635.333" r="23.981"/>
	<circle fill="#5091CD" cx="412.477" cy="488.567" r="23.981"/>
	<circle fill="#5091CD" cx="412.477" cy="561.47" r="23.981"/>
	<circle fill="#5091CD" cx="412.477" cy="635.333" r="23.981"/>
	<circle fill="#5091CD" cx="338.614" cy="531.733" r="23.981"/>
	<circle fill="#5091CD" cx="338.614" cy="604.636" r="23.981"/>
	<circle fill="#5091CD" cx="338.614" cy="677.539" r="23.981"/>
	<path fill="#5091CD" d="M536.22,382.091c12.47-87.292-73.862-120.865-119.906-121.824c-10.552-13.43-20.145-26.859-34.533-36.452
		c-10.552-6.714-40.288-29.737-94.006-29.737c-89.21,0-161.154,69.066-166.909,157.317c-38.37,20.144-64.27,59.473-64.27,105.517
		c0,66.188,53.718,119.906,119.906,119.906c13.43,0,23.981-10.552,23.981-23.981s-10.552-23.981-23.981-23.981
		c-39.329,0-71.943-32.614-71.943-71.943c0-26.858,14.389-50.84,38.37-63.31l23.981-12.47l1.918-26.859
		c3.837-62.351,56.596-112.232,119.906-112.232c36.451,0,70.984,16.307,94.007,46.043l13.429,17.267l23.022,0.959
		c39.329,0.959,70.025,32.614,70.025,71.943v31.655l28.777,12.47c21.104,8.634,33.573,28.778,33.573,51.8
		c0,30.696-24.94,55.637-55.637,55.637c-13.429,0-23.98,10.552-23.98,23.98c0,13.43,10.552,23.981,23.98,23.981
		c57.556,0,103.6-46.044,103.6-103.599C599.529,431.972,570.752,398.398,536.22,382.091z"/>
</g>
</svg>
