<?xml version="1.0" encoding="utf-8"?>
<!-- Generator: Adobe Illustrator 13.0.0, SVG Export Plug-In . SVG Version: 6.00 Build 14948)  -->
<!DOCTYPE svg PUBLIC "-//W3C//DTD SVG 1.1//EN" "http://www.w3.org/Graphics/SVG/1.1/DTD/svg11.dtd">
<svg version="1.1" id="Layer_1" xmlns="http://www.w3.org/2000/svg" xmlns:xlink="http://www.w3.org/1999/xlink" x="0px" y="0px"
	 width="515.343px" height="464.244px" viewBox="36.483 204.009 515.343 464.244"
	 enable-background="new 36.483 204.009 515.343 464.244" xml:space="preserve">
<path fill="#5091CD" d="M223.458,568.838c-11.857,0-20.978,9.12-20.978,20.978v28.274c0,11.856,9.121,20.978,20.978,20.978
	s20.978-9.121,20.978-20.978v-28.274C245.347,578.87,235.314,568.838,223.458,568.838z"/>
<path fill="#5091CD" d="M223.458,484.015c-11.857,0-20.978,9.121-20.978,20.978v28.274c0,11.857,9.121,20.978,20.978,20.978
	s20.978-9.12,20.978-20.978v-28.274C245.347,493.136,235.314,484.015,223.458,484.015z"/>
<path fill="#5091CD" d="M294.599,598.023c-11.857,0-20.978,9.121-20.978,20.979v28.273c0,11.857,9.121,20.978,20.978,20.978
	s20.978-9.12,20.978-20.978v-28.273C316.489,607.145,306.456,598.023,294.599,598.023z"/>
<path fill="#5091CD" d="M365.74,484.015c-11.856,0-20.978,9.121-20.978,20.978v28.274c0,11.857,9.121,20.978,20.978,20.978
	c11.857,0,20.979-9.12,20.979-20.978v-28.274C387.631,493.136,377.598,484.015,365.74,484.015z"/>
<path fill="#5091CD" d="M294.599,512.289c-11.857,0-20.978,9.121-20.978,20.978v28.274c0,11.856,9.121,20.978,20.978,20.978
	s20.978-9.121,20.978-20.978v-28.274C316.489,521.41,306.456,512.289,294.599,512.289z"/>
<path fill="#5091CD" d="M365.74,568.838c-11.856,0-20.978,9.12-20.978,20.978v28.274c0,11.856,9.121,20.978,20.978,20.978
	c11.857,0,20.979-9.121,20.979-20.978v-28.274C387.631,578.87,377.598,568.838,365.74,568.838z"/>
<path fill="#5091CD" d="M492.519,382.775c11.857-82.999-70.229-114.921-114.009-115.833c-10.033-12.769-19.153-25.538-32.835-34.659
	c-10.032-6.385-38.307-28.274-89.383-28.274c-84.823,0-153.228,65.669-158.7,149.58c-36.483,19.153-61.109,56.548-61.109,100.328
	c0,62.933,51.076,114.009,114.009,114.009c12.769,0,22.802-10.033,22.802-22.802c0-12.77-10.033-22.802-22.802-22.802
	c-37.395,0-68.405-31.011-68.405-68.405c0-25.538,13.681-48.341,36.483-60.197l22.802-11.857l1.824-25.538
	c3.648-60.196,53.812-106.712,113.097-106.712c34.659,0,67.493,15.505,89.383,43.78l12.77,16.417l21.89,0.912
	c37.395,0.912,66.581,31.011,66.581,68.406v30.098l27.362,11.857c20.065,8.209,31.922,27.362,31.922,49.252
	c0,29.187-23.713,52.9-52.899,52.9c-12.77,0-22.802,10.032-22.802,22.802c0,12.769,10.032,22.802,22.802,22.802
	c54.724,0,98.504-43.779,98.504-98.504C552.715,430.203,525.354,398.28,492.519,382.775z"/>
</svg>
