<?xml version="1.0" encoding="utf-8"?>
<!-- Generator: Adobe Illustrator 18.1.1, SVG Export Plug-In . SVG Version: 6.00 Build 0)  -->
<svg version="1.1" xmlns="http://www.w3.org/2000/svg" xmlns:xlink="http://www.w3.org/1999/xlink" x="0px" y="0px"
	 viewBox="0 0 20.1 13.9" enable-background="new 0 0 20.1 13.9" xml:space="preserve">
<g id="Layer_2_copy">
</g>
<g id="Layer_2">
</g>
<g id="Layer_1">
</g>
<g id="Layer_6">
</g>
<g id="Used_Elements">
	<g id="Not_Used">
	</g>
	<path fill="none" stroke="#9698A9" stroke-width="0.75" stroke-miterlimit="10" d="M18.7,13.5H1.4c-0.6,0-1-0.4-1-1V1.4
		c0-0.6,0.4-1,1-1h17.4c0.6,0,1,0.4,1,1v11.1C19.7,13.1,19.3,13.5,18.7,13.5z"/>
	<g>
		<path fill="#9698A9" d="M9.8,5.2l-1,2.3L7.7,5.2H6.4v3.3L5,5.2H3.7L2.2,8.7h0.9l0.3-0.8h1.7l0.3,0.8h1.7V6l1.2,2.7h0.7L10.3,6
			l0,2.7h0.8V5.2H9.8z M3.8,7.2l0.6-1.4l0.6,1.4H3.8z"/>
		<path fill="#9698A9" d="M16.8,5.2l-1.1,1.1l-1-1.1h-3.3v3.5h3.3l1.1-1.1l1,1.1h1.1l-1.6-1.7l1.6-1.7H16.8z M14.3,8h-2V7.3H14V6.6
			h-1.8V5.9h2.1l0.9,1L14.3,8z"/>
	</g>
</g>
<g id="Layer_7">
</g>
</svg>
