<?xml version="1.0" encoding="utf-8"?>
<!-- Generator: Adobe Illustrator 18.1.1, SVG Export Plug-In . SVG Version: 6.00 Build 0)  -->
<svg version="1.1" id="Layer_1" xmlns="http://www.w3.org/2000/svg" xmlns:xlink="http://www.w3.org/1999/xlink" x="0px" y="0px"
	 viewBox="0 0 18.3 16.1" enable-background="new 0 0 18.3 16.1" xml:space="preserve">
<g id="_x37_91-warning_x40_2x.png_47_">
	<g>
		<path fill="#9A9A9A" d="M9.6,11.7c-0.7,0-1.2,0.6-1.2,1.2c0,0.7,0.6,1.2,1.2,1.2c0.7,0,1.2-0.6,1.2-1.2
			C10.9,12.3,10.3,11.7,9.6,11.7z M9.6,13.6C9.3,13.6,9,13.3,9,13c0-0.3,0.3-0.6,0.6-0.6c0.3,0,0.6,0.3,0.6,0.6
			C10.3,13.3,10,13.6,9.6,13.6z M8.4,6.2L9,10.5c0,0.3,0.3,0.6,0.6,0.6c0.3,0,0.6-0.3,0.6-0.6l0.6-4.3c0-0.3-0.3-0.6-0.6-0.6H9
			C8.7,5.6,8.4,5.8,8.4,6.2z M9.6,10.5L9,6.2h1.2L9.6,10.5z M18.2,15.1L18.2,15.1l-8-14.8l0,0C10.1,0.1,9.9,0,9.6,0S9.2,0.1,9.1,0.3
			l0,0l-8,14.8l0,0C1,15.2,1,15.3,1,15.4c0,0.3,0.3,0.6,0.6,0.6h16.1c0.3,0,0.6-0.3,0.6-0.6C18.3,15.3,18.3,15.2,18.2,15.1z
			 M17.1,15.4h-0.3H2.5H2.2H1.6l8-14.8l8,14.8H17.1z"/>
	</g>
</g>
</svg>
