<?xml version="1.0" encoding="utf-8"?>
<!-- Generator: Adobe Illustrator 18.1.1, SVG Export Plug-In . SVG Version: 6.00 Build 0)  -->
<svg version="1.1" id="Layer_1" xmlns="http://www.w3.org/2000/svg" xmlns:xlink="http://www.w3.org/1999/xlink" x="0px" y="0px"
	 viewBox="0 0 30 30" enable-background="new 0 0 30 30" xml:space="preserve">
<g>
	<path fill="#69767F" d="M15,27c-0.2,0-0.5-0.1-0.7-0.2c-0.1-0.1-0.3-0.2-0.4-0.4L11,22.1H4.3c-1.6,0-2.9-1.3-2.9-2.9V5.9
		C1.4,4.3,2.7,3,4.3,3h21.4c1.6,0,2.9,1.3,2.9,2.9v13.2c0,1.6-1.3,2.9-2.9,2.9H19l-2.9,4.4c-0.2,0.3-0.5,0.5-0.8,0.5
		C15.2,27,15.1,27,15,27z M4.3,3.9c-1.1,0-2,0.9-2,2v13.2c0,1.1,0.9,2,2,2h7c0.2,0,0.3,0.1,0.4,0.2l3,4.6c0,0.1,0.1,0.1,0.1,0.1
		c0.1,0.1,0.2,0.1,0.3,0.1c0.1,0,0.2-0.1,0.2-0.2l3.1-4.6c0.1-0.1,0.2-0.2,0.4-0.2h7c1.1,0,2-0.9,2-2V5.9c0-1.1-0.9-2-2-2H4.3z
		 M24.6,15.4H5.2c-0.2,0-0.5-0.2-0.5-0.5s0.2-0.5,0.5-0.5h19.4c0.2,0,0.5,0.2,0.5,0.5S24.8,15.4,24.6,15.4z M24.6,11.8H5.2
		c-0.2,0-0.5-0.2-0.5-0.5s0.2-0.5,0.5-0.5h19.4c0.2,0,0.5,0.2,0.5,0.5S24.8,11.8,24.6,11.8z M24.6,8.2H5.2C4.9,8.2,4.7,8,4.7,7.7
		s0.2-0.5,0.5-0.5h19.4c0.2,0,0.5,0.2,0.5,0.5S24.8,8.2,24.6,8.2z"/>
</g>
</svg>
