<?xml version="1.0" encoding="utf-8"?>
<!-- Generator: Adobe Illustrator 18.1.1, SVG Export Plug-In . SVG Version: 6.00 Build 0)  -->
<svg version="1.1" id="Layer_1" xmlns="http://www.w3.org/2000/svg" xmlns:xlink="http://www.w3.org/1999/xlink" x="0px" y="0px"
	 viewBox="0 0 76.6 66.4" enable-background="new 0 0 76.6 66.4" xml:space="preserve">
<g id="Cloud_x5F_Sun">
	<g>
		<path fill="#5091CD" d="M43.3,14.6c1.3,0,2.3-1,2.3-2.3V7.6c0-1.3-1-2.3-2.3-2.3s-2.3,1-2.3,2.3v4.7C40.9,13.5,42,14.6,43.3,14.6z
			 M52.4,40.6c2.6-2.4,4.2-5.8,4.2-9.6c0-7.3-5.9-13.3-13.3-13.3c-4.4,0-8.3,2.2-10.7,5.5c-1.6-0.5-3.2-0.8-4.9-0.8
			c-8.7,0-15.8,6.8-16.3,15.4C7.6,39.7,5,43.6,5,48.1c0,6.5,5.2,11.7,11.7,11.7H48c5.6,0,10.1-4.5,10.1-10.1
			C58.1,45.7,55.8,42.2,52.4,40.6z M43.3,22.4c4.7,0,8.6,3.9,8.6,8.6c0,1.6-0.4,3-1.2,4.3c-1.8-3.8-5.7-6.5-10.1-6.6
			c-1-1.3-2.3-2.4-3.6-3.4C38.5,23.5,40.7,22.4,43.3,22.4z M48,55.2H16.7c-3.9,0-7-3.2-7-7c0-2.6,1.4-5,3.8-6.2l2.3-1.2L16,38
			c0.4-6.2,5.5-11,11.7-11c3.6,0,7,1.6,9.2,4.5l1.3,1.7l2.2,0.1c3.8,0.1,6.8,3.2,6.8,7v3.1l2.9,1.2c2,0.9,3.4,2.8,3.4,5
			C53.4,52.7,51,55.2,48,55.2z M55.8,20.8c0.6,0,1.2-0.3,1.7-0.7l3.1-3.1c0.4-0.4,0.7-1,0.7-1.7c0-1.3-1-2.3-2.3-2.3
			c-0.6,0-1.2,0.3-1.7,0.7l-3.1,3.1c-0.4,0.4-0.7,1-0.7,1.7C53.4,19.8,54.5,20.8,55.8,20.8z M29.1,20.1c0.4,0.4,1,0.7,1.7,0.7
			c1.3,0,2.3-1,2.3-2.3c0-0.6-0.3-1.2-0.7-1.7l-3.1-3.1c-0.4-0.4-1-0.7-1.7-0.7c-1.3,0-2.3,1-2.3,2.3c0,0.6,0.3,1.2,0.7,1.7
			L29.1,20.1z M66.7,28.6H62c-1.3,0-2.3,1-2.3,2.3c0,1.3,1,2.3,2.3,2.3h4.7c1.3,0,2.3-1,2.3-2.3C69,29.7,68,28.6,66.7,28.6z"/>
	</g>
</g>
</svg>
